<svg width="1920" height="1080" viewBox="0 0 1920 1080" fill="none" xmlns="http://www.w3.org/2000/svg">
<g id="22 &#194;&#183; En ruta &#226;&#128;&#148; travelling@@251_7936" clip-path="url(#clip0_264_10280)">
<rect width="1920" height="1080" fill="url(#paint0_linear_264_10280)"/>
<g id="C&#195;&#161;mara &#194;&#183; acci&#195;&#179;n@@251_8025">
<g id="Sol@@251_7937" filter="url(#filter0_d_264_10280)">
<circle cx="1590" cy="210" r="90" fill="#FFD02E"/>
</g>
<g id="Nube@@251_7938">
<ellipse id="Ellipse@@251_7939" cx="990" cy="105" rx="110" ry="35" fill="white" fill-opacity="0.85"/>
<ellipse id="Ellipse@@251_7940" cx="990" cy="90" rx="60" ry="50" fill="white" fill-opacity="0.85"/>
<ellipse id="Ellipse@@251_7941" cx="1055" cy="95" rx="55" ry="40" fill="white" fill-opacity="0.85"/>
</g>
<g id="Nube@@251_7942">
<ellipse id="Ellipse@@251_7943" cx="708" cy="382" rx="88" ry="28" fill="white" fill-opacity="0.85"/>
<ellipse id="Ellipse@@251_7944" cx="708" cy="370" rx="48" ry="40" fill="white" fill-opacity="0.85"/>
<ellipse id="Ellipse@@251_7945" cx="760" cy="374" rx="44" ry="32" fill="white" fill-opacity="0.85"/>
</g>
<g id="Nube@@251_7946">
<ellipse id="Ellipse@@251_7947" cx="1677" cy="405.5" rx="77" ry="24.5" fill="white" fill-opacity="0.85"/>
<ellipse id="Ellipse@@251_7948" cx="1677" cy="395" rx="42" ry="35" fill="white" fill-opacity="0.85"/>
<ellipse id="Ellipse@@251_7949" cx="1722.5" cy="398.5" rx="38.5" ry="28" fill="white" fill-opacity="0.85"/>
</g>
<path id="Volc&#195;&#161;n de San Miguel@@251_7950" d="M900 620L1260 250C1290 225 1330 225 1360 250L1760 620H900Z" fill="url(#paint1_linear_264_10280)" stroke="black"/>
<path id="Cumbre@@251_7951" d="M1262 252C1290 262 1330 262 1358 252L1400 300C1350 320 1270 320 1222 300L1262 252Z" fill="#DFE7FF" fill-opacity="0.35" stroke="black"/>
<ellipse id="Fumarola@@251_7952" cx="1320" cy="211" rx="30" ry="21" fill="white" fill-opacity="0.35"/>
<ellipse id="Fumarola@@251_7953" cx="1360" cy="168" rx="40" ry="28" fill="white" fill-opacity="0.35"/>
<ellipse id="Fumarola@@251_7954" cx="1410" cy="115" rx="50" ry="35" fill="white" fill-opacity="0.35"/>
<path id="Colinas@@251_7955" d="M0 640C300 560 520 580 760 620C1100 680 1500 590 1920 630V1080H0V640Z" fill="url(#paint2_linear_264_10280)" stroke="black"/>
<rect id="Pasto frente@@251_7956" y="984" width="1920" height="96" fill="#145C38"/>
<rect id="Carretera@@251_7957" y="852" width="1920" height="132" fill="#2B2F38"/>
<rect id="Borde superior@@251_7958" y="852" width="1920" height="10" fill="white" fill-opacity="0.8"/>
<rect id="Borde inferior@@251_7959" y="974" width="1920" height="10" fill="white" fill-opacity="0.8"/>
<rect id="L&#195;&#173;nea central@@251_7960" x="1830" y="918" width="90" height="10" fill="#FFD02E"/>
<rect id="L&#195;&#173;nea central@@251_7961" x="1660" y="918" width="90" height="10" fill="#FFD02E"/>
<rect id="L&#195;&#173;nea central@@251_7962" x="1490" y="918" width="90" height="10" fill="#FFD02E"/>
<rect id="L&#195;&#173;nea central@@251_7963" x="1320" y="918" width="90" height="10" fill="#FFD02E"/>
<rect id="L&#195;&#173;nea central@@251_7964" x="1150" y="918" width="90" height="10" fill="#FFD02E"/>
<rect id="L&#195;&#173;nea central@@251_7965" x="980" y="918" width="90" height="10" fill="#FFD02E"/>
<rect id="L&#195;&#173;nea central@@251_7966" x="810" y="918" width="90" height="10" fill="#FFD02E"/>
<rect id="L&#195;&#173;nea central@@251_7967" x="640" y="918" width="90" height="10" fill="#FFD02E"/>
<rect id="L&#195;&#173;nea central@@251_7968" x="470" y="918" width="90" height="10" fill="#FFD02E"/>
<rect id="L&#195;&#173;nea central@@251_7969" x="300" y="918" width="90" height="10" fill="#FFD02E"/>
<rect id="L&#195;&#173;nea central@@251_7970" x="130" y="918" width="90" height="10" fill="#FFD02E"/>
<rect id="L&#195;&#173;nea central@@251_7971" x="-40" y="918" width="90" height="10" fill="#FFD02E"/>
<g id="&#195;&#129;rbol@@251_7972">
<rect id="Rectangle@@251_7973" x="380" y="654" width="14.4" height="208" fill="#5B3A1E"/>
<ellipse id="Ellipse@@251_7974" cx="388" cy="650" rx="64" ry="48" fill="#1A6B3F"/>
<ellipse id="Ellipse@@251_7975" cx="404" cy="610" rx="48" ry="40" fill="#23854F"/>
</g>
<g id="&#195;&#129;rbol@@251_7976">
<rect id="Rectangle@@251_7977" x="1560" y="628" width="16.2" height="234" fill="#5B3A1E"/>
<ellipse id="Ellipse@@251_7978" cx="1569" cy="626" rx="72" ry="54" fill="#1A6B3F"/>
<ellipse id="Ellipse@@251_7979" cx="1587" cy="581" rx="54" ry="45" fill="#23854F"/>
</g>
<g id="Xpress / Cami&#195;&#179;n real@@251_7980">
<ellipse id="Ellipse@@I251_7980_219_6642" opacity="0.25" cx="979" cy="956.40" rx="277.25" ry="13.59" fill="black"/>
<rect id="Chasis@@I251_7980_219_6643" x="701.74" y="872.14" width="543.63" height="21.74" rx="3.26" fill="#2B2B2B"/>
<rect id="Caja@@I251_7980_219_6644" x="690.87" y="676.43" width="380.54" height="212.01" rx="5.43" fill="url(#paint3_linear_264_10280)"/>
<g id="Caja &#194;&#183; gr&#195;&#161;fica@@I251_7980_220_3635">
<g clip-path="url(#clip1_264_10280)">
<g id="Xpress / &#195;&#129;guila@@I251_7980_219_6646" opacity="0.95">
<path id="&#195;&#129;guila@@I251_7980_219_6646_12_21" fill-rule="evenodd" clip-rule="evenodd" d="M752.59 846.22C747.29 845.52 741.3 843.05 737.77 839.52L736.35 838.11H738.12C745.53 838.11 752.59 835.99 757.88 832.46C760.71 830.69 763.18 828.22 761.76 828.58C738.47 835.99 724.71 834.22 709.89 822.58C708.48 821.17 707.06 820.11 707.06 819.75C706.71 819.05 737.77 813.05 757.88 809.87C767.41 808.46 766.70 808.46 764.59 806.34C761.06 802.11 756.12 802.82 708.83 813.05C700.36 814.81 698.59 814.46 688.36 807.76C676.71 799.99 676.36 799.99 678.13 799.64C678.48 799.29 681.30 798.93 683.77 798.23C691.54 796.46 708.12 793.64 729.30 790.11C740.59 788.70 749.77 786.93 749.77 786.93C750.82 786.23 746.24 782.70 743.41 782.35C740.94 781.99 707.06 786.93 683.42 791.52C670.01 793.99 669.66 793.99 660.48 787.99C648.48 780.23 647.07 779.17 647.42 779.17C648.84 778.11 715.89 765.41 745.18 760.47C763.18 757.64 765.65 757.29 772.35 759.06C788.94 762.94 800.23 778.82 800.23 797.87C800.23 802.11 800.23 802.11 801.99 800.70C807.64 795.76 807.64 787.29 802.70 779.17C801.64 777.76 800.94 776.70 801.29 776.70C804.46 774.58 823.52 772.11 834.81 772.11C844.34 771.76 847.17 772.82 851.05 778.11C853.17 780.58 854.58 781.29 859.16 781.29C867.28 781.99 875.05 787.99 875.05 793.99C875.05 793.99 873.99 793.99 872.22 793.99C853.87 791.88 833.05 799.29 812.93 815.87C809.41 818.7 803.76 823.28 800.58 825.75C785.41 838.11 772.00 844.81 760.35 846.22C756.47 846.58 756.12 846.58 752.59 846.22ZM849.28 785.17C849.28 783.76 845.40 780.23 843.64 779.88C840.46 779.52 838.34 780.94 838.34 783.41C837.99 784.82 837.99 784.82 842.23 784.46C844.34 784.11 844.7 784.11 846.46 784.82C849.28 786.23 849.28 786.23 849.28 785.17Z" fill="white"/>
</g>
</g>
</g>
<rect id="Rectangle@@I251_7980_219_6645" x="693.04" y="678.61" width="376.19" height="207.66" rx="3.26" stroke="#B8BCC2" stroke-width="4.34"/>
<path id="R&#195;&#179;tulo@@I251_7980_219_6648" d="M986.35 708.54C988.82 708.54 990.80 709.39 992.29 711.09L990.03 713.38C989.48 712.85 988.93 712.46 988.36 712.22C987.8 711.95 987.17 711.82 986.49 711.82C985.65 711.82 984.97 712.04 984.46 712.47C983.97 712.91 983.72 713.46 983.72 714.14C983.72 714.71 983.93 715.18 984.35 715.55C984.76 715.91 985.56 716.34 986.75 716.83C988.20 717.41 989.27 718.12 989.97 718.95C990.69 719.76 991.05 720.85 991.05 722.22C991.05 723.47 990.74 724.61 990.14 725.65C989.54 726.68 988.65 727.52 987.48 728.16C986.32 728.78 984.91 729.09 983.27 729.09C980.58 729.09 978.42 728.15 976.80 726.27L979.26 723.89C979.84 724.51 980.45 724.99 981.1 725.31C981.76 725.61 982.50 725.76 983.33 725.76C984.31 725.76 985.09 725.50 985.68 725C986.26 724.49 986.55 723.79 986.55 722.90C986.55 722.22 986.33 721.68 985.90 721.26C985.49 720.85 984.71 720.40 983.58 719.91C982.04 719.27 980.93 718.56 980.25 717.79C979.59 717 979.26 715.98 979.26 714.73C979.26 713.62 979.54 712.59 980.11 711.65C980.69 710.71 981.52 709.96 982.59 709.39C983.67 708.83 984.92 708.54 986.35 708.54ZM998.22 729.09C996.43 729.09 995.03 728.57 994.04 727.51C993.04 726.44 992.54 724.93 992.54 722.99C992.54 721.33 992.81 719.76 993.36 718.27C993.90 716.76 994.76 715.53 995.93 714.56C997.10 713.60 998.57 713.12 1000.34 713.12C1002.13 713.12 1003.53 713.66 1004.53 714.73C1005.53 715.81 1006.03 717.31 1006.03 719.23C1006.03 720.87 1005.75 722.44 1005.21 723.95C1004.66 725.44 1003.8 726.67 1002.63 727.65C1001.47 728.61 999.99 729.09 998.22 729.09ZM998.50 725.93C999.29 725.93 999.93 725.54 1000.43 724.77C1000.92 723.98 1001.26 723.04 1001.45 721.94C1001.65 720.85 1001.76 719.79 1001.76 718.78C1001.76 717.91 1001.62 717.28 1001.33 716.88C1001.05 716.49 1000.63 716.29 1000.06 716.29C999.27 716.29 998.62 716.68 998.13 717.48C997.64 718.25 997.3 719.18 997.09 720.27C996.90 721.37 996.81 722.42 996.81 723.44C996.81 724.31 996.95 724.94 997.23 725.33C997.51 725.73 997.94 725.93 998.50 725.93ZM1024.13 713.12C1025.07 713.12 1025.81 713.43 1026.36 714.06C1026.91 714.68 1027.18 715.53 1027.18 716.63C1027.18 716.97 1027.15 717.31 1027.1 717.65L1025.54 728.61H1021.36L1022.8 718.41C1022.84 718.07 1022.86 717.86 1022.86 717.79C1022.86 717.09 1022.62 716.74 1022.15 716.74C1021.41 716.74 1020.59 717.81 1019.69 719.94L1018.45 728.61H1014.26L1015.68 718.41C1015.71 718.07 1015.73 717.84 1015.73 717.73C1015.73 717.07 1015.5 716.74 1015.03 716.74C1014.29 716.74 1013.47 717.84 1012.57 720.05L1011.38 728.61H1007.19L1009.29 713.60H1012.91L1012.82 715.98C1014.06 714.07 1015.47 713.12 1017.03 713.12C1017.84 713.12 1018.5 713.36 1019.01 713.83C1019.54 714.30 1019.87 714.97 1020 715.84C1020.55 714.99 1021.17 714.33 1021.87 713.86C1022.58 713.37 1023.34 713.12 1024.13 713.12ZM1034.36 729.09C1032.57 729.09 1031.18 728.57 1030.18 727.51C1029.18 726.44 1028.68 724.93 1028.68 722.99C1028.68 721.33 1028.95 719.76 1029.5 718.27C1030.05 716.76 1030.9 715.53 1032.07 714.56C1033.24 713.60 1034.71 713.12 1036.48 713.12C1038.27 713.12 1039.67 713.66 1040.66 714.73C1041.66 715.81 1042.16 717.31 1042.16 719.23C1042.16 720.87 1041.89 722.44 1041.34 723.95C1040.8 725.44 1039.94 726.67 1038.77 727.65C1037.6 728.61 1036.13 729.09 1034.36 729.09ZM1034.64 725.93C1035.43 725.93 1036.08 725.54 1036.57 724.77C1037.06 723.98 1037.39 723.04 1037.58 721.94C1037.79 720.85 1037.89 719.79 1037.89 718.78C1037.89 717.91 1037.75 717.28 1037.47 716.88C1037.19 716.49 1036.76 716.29 1036.2 716.29C1035.41 716.29 1034.77 716.68 1034.28 717.48C1033.79 718.25 1033.44 719.18 1033.23 720.27C1033.04 721.37 1032.95 722.42 1032.95 723.44C1032.95 724.31 1033.09 724.94 1033.37 725.33C1033.65 725.73 1034.08 725.93 1034.64 725.93ZM1049.98 713.12C1050.97 713.12 1051.9 713.29 1052.75 713.63C1053.61 713.97 1054.36 714.44 1054.98 715.04L1053.14 717.31C1052.12 716.57 1051.11 716.20 1050.09 716.20C1049.52 716.20 1049.07 716.33 1048.73 716.57C1048.41 716.82 1048.25 717.15 1048.25 717.56C1048.25 717.96 1048.42 718.29 1048.76 718.55C1049.1 718.79 1049.78 719.12 1050.79 719.51C1051.94 719.96 1052.8 720.53 1053.37 721.21C1053.93 721.87 1054.22 722.73 1054.22 723.81C1054.22 724.83 1053.95 725.74 1053.42 726.55C1052.9 727.34 1052.15 727.96 1051.19 728.42C1050.23 728.87 1049.13 729.09 1047.88 729.09C1046.68 729.09 1045.59 728.89 1044.63 728.47C1043.69 728.04 1042.89 727.46 1042.23 726.75L1044.41 724.54C1045.48 725.52 1046.63 726.01 1047.85 726.01C1048.55 726.01 1049.08 725.85 1049.44 725.53C1049.8 725.21 1049.98 724.82 1049.98 724.35C1049.98 723.86 1049.81 723.47 1049.47 723.19C1049.13 722.90 1048.46 722.56 1047.46 722.17C1046.29 721.72 1045.43 721.18 1044.89 720.56C1044.36 719.92 1044.1 719.08 1044.1 718.04C1044.1 717.14 1044.33 716.32 1044.8 715.58C1045.29 714.83 1045.98 714.23 1046.87 713.80C1047.75 713.35 1048.79 713.12 1049.98 713.12ZM844.63 740.02L843.70 743.22H837.71L837.03 748.11H842.29L841.83 751.22H836.58L835.87 756.39H842.34L841.86 759.61H831.06L833.80 740.02H844.63ZM857.35 744.60L852.82 751.73L855.91 759.61H851.47L849.88 754.02L846.83 759.61H842.39L847.71 751.61L844.88 744.60H849.35L850.56 749.52L852.99 744.60H857.35ZM859.24 744.60H862.94L862.92 746.19C864.10 744.81 865.46 744.12 866.99 744.12C868.29 744.12 869.29 744.59 869.98 745.54C870.70 746.48 871.06 747.82 871.06 749.55C871.06 751.38 870.79 753.09 870.27 754.69C869.76 756.28 868.95 757.58 867.83 758.6C866.72 759.59 865.31 760.09 863.59 760.09C862.80 760.09 862.03 759.96 861.28 759.70L860.46 765.44L856.24 765.89L859.24 744.60ZM863.31 756.98C864.10 756.98 864.75 756.60 865.26 755.83C865.79 755.03 866.18 754.07 866.42 752.94C866.67 751.81 866.79 750.71 866.79 749.63C866.79 748.77 866.66 748.16 866.39 747.83C866.15 747.47 865.79 747.29 865.32 747.29C864.49 747.29 863.66 747.83 862.83 748.90L861.73 756.67C862.29 756.88 862.82 756.98 863.31 756.98ZM881.67 744.18C882.12 744.18 882.57 744.25 883.02 744.40L881.78 748.50C881.38 748.39 881.01 748.33 880.65 748.33C879.87 748.33 879.23 748.70 878.73 749.44C878.22 750.15 877.75 751.20 877.31 752.57L876.35 759.61H872.17L874.26 744.60H877.85L877.79 747.26C878.26 746.28 878.83 745.53 879.49 745.00C880.15 744.45 880.87 744.18 881.67 744.18ZM889.75 744.12C891.30 744.12 892.51 744.51 893.40 745.28C894.28 746.04 894.73 746.99 894.73 748.14C894.73 750.06 893.91 751.47 892.27 752.38C890.65 753.28 888.54 753.88 885.94 754.16V754.21C885.94 755.18 886.12 755.87 886.50 756.31C886.90 756.72 887.45 756.93 888.17 756.93C888.73 756.93 889.28 756.82 889.81 756.62C890.34 756.39 890.94 756.04 891.62 755.57L893.09 758.09C891.39 759.43 889.55 760.09 887.58 760.09C885.71 760.09 884.27 759.58 883.25 758.54C882.23 757.48 881.72 756.00 881.72 754.10C881.72 752.42 882.01 750.83 882.57 749.32C883.14 747.80 884.02 746.55 885.23 745.59C886.44 744.61 887.94 744.12 889.75 744.12ZM886.16 751.53C887.69 751.40 888.81 751.04 889.53 750.45C890.24 749.85 890.60 749.13 890.60 748.28C890.60 747.90 890.50 747.60 890.29 747.37C890.10 747.13 889.79 747.01 889.36 747.01C888.49 747.01 887.79 747.44 887.26 748.31C886.76 749.15 886.39 750.23 886.16 751.53ZM902.00 744.12C903.00 744.12 903.92 744.29 904.77 744.63C905.64 744.97 906.38 745.44 907.00 746.04L905.17 748.31C904.15 747.57 903.13 747.20 902.11 747.20C901.55 747.20 901.09 747.33 900.76 747.57C900.44 747.82 900.28 748.15 900.28 748.56C900.28 748.96 900.44 749.29 900.78 749.55C901.12 749.79 901.80 750.12 902.82 750.51C903.97 750.96 904.83 751.53 905.39 752.21C905.96 752.87 906.24 753.73 906.24 754.81C906.24 755.83 905.98 756.74 905.45 757.55C904.92 758.34 904.18 758.96 903.22 759.42C902.25 759.87 901.15 760.09 899.91 760.09C898.70 760.09 897.62 759.89 896.66 759.47C895.71 759.04 894.91 758.46 894.25 757.75L896.43 755.54C897.50 756.52 898.65 757.01 899.88 757.01C900.58 757.01 901.10 756.85 901.46 756.53C901.82 756.21 902.00 755.82 902.00 755.35C902.00 754.86 901.83 754.47 901.49 754.19C901.15 753.90 900.48 753.56 899.48 753.17C898.32 752.72 897.46 752.18 896.91 751.56C896.38 750.92 896.12 750.08 896.12 749.04C896.12 748.14 896.36 747.32 896.83 746.58C897.32 745.83 898.00 745.23 898.89 744.80C899.78 744.35 900.81 744.12 902.00 744.12ZM914.04 744.12C915.03 744.12 915.96 744.29 916.81 744.63C917.67 744.97 918.42 745.44 919.04 746.04L917.20 748.31C916.18 747.57 915.17 747.20 914.15 747.20C913.58 747.20 913.13 747.33 912.79 747.57C912.47 747.82 912.31 748.15 912.31 748.56C912.31 748.96 912.48 749.29 912.82 749.55C913.16 749.79 913.84 750.12 914.86 750.51C916.01 750.96 916.86 751.53 917.43 752.21C917.99 752.87 918.28 753.73 918.28 754.81C918.28 755.83 918.01 756.74 917.48 757.55C916.96 758.34 916.21 758.96 915.25 759.42C914.29 759.87 913.19 760.09 911.94 760.09C910.74 760.09 909.65 759.89 908.69 759.47C907.75 759.04 906.95 758.46 906.29 757.75L908.47 755.54C909.54 756.52 910.69 757.01 911.92 757.01C912.61 757.01 913.14 756.85 913.50 756.53C913.86 756.21 914.04 755.82 914.04 755.35C914.04 754.86 913.87 754.47 913.53 754.19C913.19 753.90 912.52 753.56 911.52 753.17C910.35 752.72 909.49 752.18 908.95 751.56C908.42 750.92 908.16 750.08 908.16 749.04C908.16 748.14 908.39 747.32 908.86 746.58C909.35 745.83 910.04 745.23 910.93 744.80C911.81 744.35 912.85 744.12 914.04 744.12ZM938.94 740.02L938.00 743.22H932.01L931.33 748.11H936.59L936.14 751.22H930.88L930.17 756.39H936.65L936.17 759.61H925.37L928.11 740.02H938.94ZM942.78 755.77L942.75 756.05C942.75 756.49 942.94 756.70 943.32 756.70C943.51 756.70 943.71 756.65 943.94 756.56L944.36 759.53C943.59 759.89 942.72 760.07 941.76 760.07C940.73 760.07 939.93 759.79 939.36 759.25C938.79 758.70 938.51 757.91 938.51 756.87C938.51 756.59 938.54 756.28 938.60 755.94L941.00 738.64L945.21 738.19L942.78 755.77ZM959.91 739.54C962.38 739.54 964.35 740.39 965.84 742.09L963.58 744.38C963.03 743.85 962.48 743.46 961.91 743.22C961.35 742.95 960.73 742.82 960.05 742.82C959.20 742.82 958.52 743.04 958.01 743.47C957.52 743.91 957.28 744.46 957.28 745.14C957.28 745.71 957.48 746.18 957.90 746.55C958.31 746.91 959.11 747.34 960.30 747.83C961.75 748.41 962.83 749.12 963.52 749.95C964.24 750.76 964.60 751.85 964.60 753.22C964.60 754.47 964.30 755.61 963.69 756.65C963.09 757.68 962.21 758.52 961.04 759.16C959.87 759.78 958.46 760.09 956.83 760.09C954.13 760.09 951.97 759.15 950.35 757.27L952.81 754.89C953.4 755.51 954.01 755.99 954.65 756.31C955.31 756.61 956.05 756.76 956.88 756.76C957.86 756.76 958.64 756.50 959.23 756C959.81 755.49 960.10 754.79 960.10 753.90C960.10 753.22 959.89 752.68 959.45 752.26C959.04 751.85 958.27 751.40 957.14 750.91C955.59 750.27 954.48 749.56 953.80 748.79C953.14 748 952.81 746.98 952.81 745.73C952.81 744.62 953.09 743.59 953.66 742.65C954.24 741.71 955.07 740.96 956.15 740.39C957.22 739.83 958.47 739.54 959.91 739.54ZM974.20 744.12C976.05 744.12 977.87 744.61 979.66 745.59L978.25 755.40C978.21 755.78 978.19 756.02 978.19 756.14C978.19 756.42 978.24 756.65 978.33 756.82C978.42 756.98 978.60 757.13 978.87 757.24L977.6 760.01C976.79 759.93 976.10 759.71 975.53 759.33C974.97 758.95 974.59 758.42 974.40 757.72C973.85 758.47 973.25 759.06 972.59 759.47C971.93 759.89 971.18 760.09 970.33 760.09C968.97 760.09 967.92 759.59 967.16 758.6C966.41 757.58 966.03 756.21 966.03 754.50C966.03 752.78 966.31 751.13 966.85 749.55C967.42 747.97 968.31 746.67 969.54 745.65C970.76 744.63 972.32 744.12 974.20 744.12ZM973.98 747.18C973.15 747.18 972.46 747.54 971.91 748.28C971.37 749.01 970.96 749.95 970.70 751.08C970.43 752.21 970.30 753.37 970.30 754.55C970.30 755.42 970.42 756.03 970.64 756.39C970.89 756.75 971.24 756.93 971.72 756.93C972.15 756.93 972.55 756.76 972.93 756.42C973.33 756.08 973.74 755.60 974.18 754.98L975.25 747.40C974.80 747.25 974.37 747.18 973.98 747.18ZM985.16 755.77L985.13 756.05C985.13 756.49 985.32 756.70 985.69 756.70C985.88 756.70 986.09 756.65 986.32 756.56L986.74 759.53C985.97 759.89 985.10 760.07 984.14 760.07C983.10 760.07 982.30 759.79 981.74 759.25C981.17 758.70 980.89 757.91 980.89 756.87C980.89 756.59 980.92 756.28 980.97 755.94L983.38 738.64L987.59 738.19L985.16 755.77ZM1001.61 744.60L995.47 759.61H990.44L988.32 744.60H992.76L993.41 756.33L997.22 744.60H1001.61ZM1009.02 744.12C1010.87 744.12 1012.69 744.61 1014.48 745.59L1013.06 755.40C1013.02 755.78 1013.01 756.02 1013.01 756.14C1013.01 756.42 1013.05 756.65 1013.15 756.82C1013.24 756.98 1013.42 757.13 1013.68 757.24L1012.41 760.01C1011.6 759.93 1010.91 759.71 1010.35 759.33C1009.78 758.95 1009.41 758.42 1009.22 757.72C1008.67 758.47 1008.07 759.06 1007.41 759.47C1006.75 759.89 1005.99 760.09 1005.15 760.09C1003.79 760.09 1002.73 759.59 1001.98 758.6C1001.23 757.58 1000.85 756.21 1000.85 754.50C1000.85 752.78 1001.12 751.13 1001.67 749.55C1002.24 747.97 1003.13 746.67 1004.36 745.65C1005.58 744.63 1007.14 744.12 1009.02 744.12ZM1008.79 747.18C1007.96 747.18 1007.28 747.54 1006.73 748.28C1006.18 749.01 1005.78 749.95 1005.51 751.08C1005.25 752.21 1005.12 753.37 1005.12 754.55C1005.12 755.42 1005.23 756.03 1005.46 756.39C1005.7 756.75 1006.06 756.93 1006.53 756.93C1006.97 756.93 1007.37 756.76 1007.75 756.42C1008.14 756.08 1008.56 755.60 1008.99 754.98L1010.07 747.40C1009.61 747.25 1009.19 747.18 1008.79 747.18ZM1030.46 738.64L1027.52 759.61H1023.82L1023.87 757.61C1023.37 758.40 1022.78 759.01 1022.12 759.44C1021.46 759.88 1020.7 760.09 1019.83 760.09C1018.47 760.09 1017.43 759.60 1016.69 758.62C1015.98 757.63 1015.62 756.23 1015.62 754.44C1015.62 752.80 1015.86 751.19 1016.35 749.61C1016.84 748.02 1017.59 746.71 1018.59 745.68C1019.61 744.64 1020.84 744.12 1022.29 744.12C1023.57 744.12 1024.58 744.61 1025.32 745.59L1026.33 738.21L1030.46 738.64ZM1023.17 747.26C1022.43 747.26 1021.82 747.65 1021.33 748.42C1020.84 749.19 1020.48 750.13 1020.26 751.25C1020.05 752.36 1019.94 753.43 1019.94 754.47C1019.94 755.37 1020.07 756.01 1020.31 756.39C1020.56 756.77 1020.9 756.96 1021.33 756.96C1021.82 756.96 1022.28 756.74 1022.71 756.31C1023.17 755.87 1023.62 755.27 1024.07 754.50L1024.92 748.36C1024.67 747.99 1024.41 747.71 1024.13 747.54C1023.86 747.35 1023.54 747.26 1023.17 747.26ZM1036.46 760.09C1034.67 760.09 1033.27 759.57 1032.28 758.51C1031.28 757.44 1030.78 755.93 1030.78 753.99C1030.78 752.33 1031.05 750.76 1031.6 749.27C1032.14 747.76 1033 746.53 1034.17 745.56C1035.34 744.60 1036.81 744.12 1038.58 744.12C1040.37 744.12 1041.76 744.66 1042.76 745.73C1043.76 746.81 1044.26 748.31 1044.26 750.23C1044.26 751.87 1043.99 753.44 1043.44 754.95C1042.89 756.44 1042.04 757.67 1040.87 758.65C1039.7 759.61 1038.23 760.09 1036.46 760.09ZM1036.74 756.93C1037.53 756.93 1038.17 756.54 1038.66 755.77C1039.15 754.98 1039.49 754.04 1039.68 752.94C1039.89 751.85 1039.99 750.79 1039.99 749.78C1039.99 748.91 1039.85 748.28 1039.57 747.88C1039.29 747.49 1038.86 747.29 1038.3 747.29C1037.5 747.29 1036.86 747.68 1036.37 748.48C1035.88 749.25 1035.54 750.18 1035.33 751.27C1035.14 752.37 1035.05 753.42 1035.05 754.44C1035.05 755.31 1035.19 755.94 1035.47 756.33C1035.75 756.73 1036.18 756.93 1036.74 756.93ZM1054.93 744.18C1055.38 744.18 1055.83 744.25 1056.29 744.40L1055.04 748.50C1054.65 748.39 1054.27 748.33 1053.91 748.33C1053.14 748.33 1052.5 748.70 1051.99 749.44C1051.48 750.15 1051.01 751.20 1050.57 752.57L1049.61 759.61H1045.43L1047.52 744.60H1051.11L1051.06 747.26C1051.53 746.28 1052.09 745.53 1052.75 745.00C1053.41 744.45 1054.14 744.18 1054.93 744.18Z" fill="white"/>
<path id="Cabina@@I251_7980_219_6649" d="M1076.85 730.8H1169.27C1183.77 730.8 1195.55 738.04 1204.61 752.54L1245.38 812.34C1252.63 823.21 1256.25 834.09 1256.25 844.96V893.89H1076.85V730.8Z" fill="url(#paint4_linear_264_10280)" stroke="black" stroke-width="0.54"/>
<path id="Ventana@@I251_7980_219_6650" d="M1093.16 747.10H1163.84C1172.9 747.10 1180.15 751.63 1185.58 760.7L1218.2 809.62H1093.16V747.10Z" fill="#1D2229" stroke="black" stroke-width="0.54"/>
<rect id="Manija@@I251_7980_219_6651" x="1109.47" y="820.5" width="21.74" height="5.43" rx="2.17" fill="#8A1409"/>
<rect id="Defensa@@I251_7980_219_6652" x="1201.89" y="853.11" width="59.8" height="38.05" rx="7.61" fill="#23272E"/>
<rect id="Faro@@I251_7980_219_6653" x="1229.07" y="828.65" width="26.09" height="14.13" rx="5.43" fill="#F4F4F4"/>
<circle id="Ellipse@@I251_7980_219_6654" cx="799.6" cy="910.2" r="43.49" fill="#1B1B1B"/>
<circle id="Ellipse@@I251_7980_219_6655" cx="799.6" cy="910.2" r="22.83" fill="#D8DBE0"/>
<circle id="Ellipse@@I251_7980_219_6656" cx="799.6" cy="910.2" r="8.69" fill="#9AA0A8"/>
<circle id="Ellipse@@I251_7980_219_6657" cx="1169.27" cy="910.2" r="43.49" fill="#1B1B1B"/>
<circle id="Ellipse@@I251_7980_219_6658" cx="1169.27" cy="910.2" r="22.83" fill="#D8DBE0"/>
<circle id="Ellipse@@I251_7980_219_6659" cx="1169.27" cy="910.2" r="8.69" fill="#9AA0A8"/>
</g>
<rect id="L&#195;&#173;nea velocidad@@251_7981" x="520" y="760" width="160" height="8" rx="4" fill="white" fill-opacity="0.7"/>
<rect id="L&#195;&#173;nea velocidad@@251_7982" x="550" y="800" width="120" height="8" rx="4" fill="white" fill-opacity="0.7"/>
<rect id="L&#195;&#173;nea velocidad@@251_7983" x="580" y="840" width="90" height="8" rx="4" fill="white" fill-opacity="0.7"/>
<g id="Ruta@@251_7984" filter="url(#filter1_d_264_10280)">
<rect x="110" y="380" width="560" height="190" rx="24" transform="rotate(-3 110 380)" fill="white"/>
<path id="RUTA &#194;&#183; GU&#195;&#141;A XPS-SV-0058213@@251_7985" d="M141.16 416.41L140.55 404.75L144.24 404.56C145.02 404.52 145.7 404.62 146.28 404.88C146.87 405.14 147.33 405.52 147.68 406.03C148.03 406.52 148.22 407.12 148.26 407.82C148.30 408.59 148.13 409.28 147.77 409.88C147.42 410.49 146.92 410.93 146.27 411.21L148.85 416.01L146.61 416.13L144.34 411.60L142.91 411.68L143.16 416.31L141.16 416.41ZM142.82 409.92L144.52 409.83C145.08 409.80 145.51 409.62 145.82 409.30C146.12 408.97 146.26 408.54 146.23 407.99C146.20 407.44 146.02 407.02 145.68 406.72C145.35 406.42 144.90 406.28 144.33 406.31L142.64 406.40L142.82 409.92ZM154.33 415.88C153.19 415.94 152.28 415.68 151.6 415.10C150.92 414.50 150.56 413.67 150.50 412.59L150.07 404.25L152.08 404.15L152.51 412.47C152.54 413.02 152.71 413.45 153.00 413.74C153.29 414.04 153.70 414.17 154.24 414.14C154.76 414.12 155.15 413.94 155.41 413.62C155.68 413.29 155.80 412.85 155.77 412.30L155.34 403.98L157.35 403.87L157.79 412.21C157.84 413.29 157.57 414.16 156.96 414.82C156.36 415.47 155.48 415.82 154.33 415.88ZM162.89 415.28L162.38 405.46L159.33 405.62L159.23 403.77L167.35 403.35L167.44 405.20L164.39 405.36L164.91 415.17L162.89 415.28ZM169.25 414.94L171.58 403.12L174.15 402.99L177.72 414.50L175.67 414.61L174.88 411.81L171.78 411.97L171.29 414.84L169.25 414.94ZM172.06 410.32L174.43 410.20L173.56 407.11C173.42 406.59 173.29 406.13 173.19 405.72C173.08 405.29 173.00 404.99 172.96 404.80C172.94 404.99 172.90 405.30 172.83 405.73C172.78 406.15 172.70 406.62 172.60 407.14L172.06 410.32ZM192.43 409.64C191.97 409.67 191.60 409.55 191.31 409.30C191.02 409.05 190.87 408.69 190.85 408.23C190.82 407.78 190.94 407.41 191.19 407.13C191.45 406.84 191.81 406.68 192.27 406.65C192.73 406.63 193.10 406.75 193.38 407.01C193.67 407.26 193.83 407.62 193.85 408.08C193.88 408.54 193.76 408.90 193.49 409.19C193.24 409.47 192.89 409.62 192.43 409.64ZM211.88 412.87C211.13 412.91 210.47 412.80 209.89 412.56C209.32 412.30 208.87 411.92 208.53 411.43C208.21 410.92 208.02 410.31 207.99 409.61L207.72 404.53C207.68 403.82 207.80 403.20 208.07 402.67C208.35 402.14 208.77 401.73 209.30 401.42C209.85 401.10 210.50 400.92 211.25 400.88C212.00 400.85 212.66 400.96 213.22 401.21C213.79 401.46 214.24 401.83 214.58 402.33C214.91 402.82 215.10 403.43 215.14 404.14L213.12 404.25C213.09 403.69 212.92 403.28 212.61 403.01C212.31 402.74 211.88 402.61 211.34 402.64C210.80 402.67 210.38 402.84 210.10 403.14C209.82 403.44 209.69 403.87 209.72 404.41L209.99 409.51C210.01 410.05 210.18 410.46 210.50 410.75C210.81 411.03 211.24 411.16 211.78 411.13C212.33 411.10 212.74 410.93 213.01 410.61C213.29 410.30 213.42 409.87 213.39 409.33L213.33 408.15L211.35 408.25L211.25 406.52L215.25 406.31L215.40 409.22C215.44 409.93 215.32 410.55 215.03 411.08C214.75 411.61 214.34 412.03 213.80 412.35C213.27 412.66 212.63 412.83 211.88 412.87ZM221.39 412.37C220.25 412.43 219.34 412.17 218.66 411.58C217.99 410.99 217.62 410.15 217.57 409.08L217.13 400.74L219.14 400.63L219.58 408.96C219.61 409.51 219.77 409.93 220.06 410.23C220.36 410.52 220.77 410.66 221.30 410.63C221.82 410.60 222.21 410.43 222.48 410.10C222.75 409.78 222.87 409.34 222.84 408.79L222.40 400.46L224.42 400.36L224.85 408.7C224.91 409.77 224.63 410.64 224.03 411.30C223.42 411.95 222.54 412.31 221.39 412.37ZM227.61 411.88L227.52 410.13L229.87 410.00L229.44 401.85L227.09 401.98L227.00 400.22L233.71 399.87L233.80 401.63L231.45 401.75L231.88 409.90L234.23 409.77L234.32 411.53L227.61 411.88ZM229.07 398.83L230.65 396.50L232.79 396.39L231.09 398.72L229.07 398.83ZM236.31 411.43L238.64 399.61L241.21 399.47L244.78 410.98L242.73 411.09L241.95 408.30L238.85 408.46L238.36 411.32L236.31 411.43ZM239.13 406.81L241.49 406.69L240.63 403.59C240.48 403.08 240.36 402.61 240.25 402.20C240.14 401.78 240.07 401.47 240.03 401.28C240.00 401.48 239.96 401.79 239.90 402.22C239.85 402.64 239.77 403.11 239.67 403.63L239.13 406.81ZM255.36 410.43L258.27 404.28L254.94 398.76L257.18 398.64L258.80 401.49C258.92 401.69 259.03 401.9 259.12 402.09C259.22 402.28 259.29 402.43 259.34 402.53C259.36 402.42 259.41 402.27 259.49 402.07C259.56 401.87 259.65 401.65 259.74 401.44L261.08 398.43L263.25 398.32L260.51 404.12L264.05 409.97L261.82 410.09L260.00 406.95C259.88 406.74 259.77 406.54 259.66 406.34C259.57 406.14 259.50 405.99 259.45 405.87C259.41 405.99 259.36 406.16 259.28 406.36C259.21 406.57 259.12 406.78 259.03 407.00L257.53 410.32L255.36 410.43ZM265.72 409.89L265.11 398.22L269 398.02C269.77 397.98 270.46 398.09 271.05 398.36C271.65 398.63 272.12 399.02 272.47 399.55C272.82 400.07 273.01 400.69 273.05 401.41C273.09 402.12 272.96 402.76 272.65 403.32C272.36 403.88 271.94 404.33 271.38 404.66C270.82 404.98 270.15 405.17 269.37 405.21L267.49 405.31L267.72 409.78L265.72 409.89ZM267.39 403.50L269.28 403.40C269.83 403.37 270.26 403.19 270.58 402.85C270.90 402.51 271.05 402.06 271.02 401.52C270.99 400.96 270.80 400.54 270.44 400.23C270.09 399.93 269.64 399.8 269.09 399.82L267.20 399.92L267.39 403.50ZM278.91 409.36C278.11 409.40 277.41 409.30 276.81 409.06C276.21 408.83 275.74 408.47 275.39 408.00C275.06 407.52 274.87 406.94 274.82 406.27L276.82 406.16C276.84 406.64 277.03 407.01 277.39 407.27C277.75 407.52 278.24 407.63 278.83 407.60C279.41 407.57 279.85 407.41 280.15 407.13C280.47 406.84 280.62 406.47 280.59 406.00C280.57 405.60 280.43 405.27 280.19 404.99C279.95 404.71 279.61 404.52 279.18 404.44L277.82 404.14C276.89 403.96 276.16 403.57 275.63 402.99C275.10 402.41 274.82 401.69 274.78 400.82C274.74 400.16 274.86 399.58 275.13 399.07C275.41 398.57 275.81 398.17 276.34 397.87C276.88 397.58 277.52 397.41 278.26 397.37C279.39 397.31 280.30 397.56 280.99 398.11C281.68 398.65 282.06 399.41 282.12 400.39L280.13 400.5C280.10 400.04 279.93 399.69 279.62 399.45C279.31 399.20 278.88 399.09 278.34 399.12C277.82 399.14 277.42 399.29 277.14 399.55C276.87 399.81 276.74 400.16 276.77 400.61C276.79 401.01 276.91 401.35 277.14 401.63C277.38 401.89 277.71 402.07 278.13 402.17L279.54 402.48C280.48 402.67 281.21 403.05 281.73 403.63C282.25 404.20 282.54 404.93 282.58 405.81C282.62 406.47 282.49 407.07 282.20 407.60C281.90 408.11 281.48 408.53 280.92 408.83C280.35 409.14 279.69 409.31 278.91 409.36ZM285.66 404.48L285.57 402.63L290.68 402.36L290.78 404.22L285.66 404.48ZM298.07 408.35C297.27 408.39 296.57 408.30 295.97 408.06C295.37 407.83 294.90 407.47 294.55 407.00C294.22 406.51 294.03 405.94 293.98 405.26L295.98 405.16C296.00 405.64 296.19 406.01 296.55 406.27C296.92 406.52 297.40 406.62 297.99 406.59C298.57 406.56 299.01 406.41 299.31 406.12C299.63 405.84 299.78 405.46 299.75 404.99C299.73 404.60 299.6 404.27 299.35 403.99C299.11 403.70 298.77 403.52 298.34 403.43L296.98 403.14C296.05 402.95 295.32 402.57 294.79 401.99C294.27 401.40 293.98 400.68 293.94 399.82C293.90 399.16 294.02 398.58 294.29 398.07C294.57 397.57 294.97 397.16 295.50 396.87C296.04 396.57 296.68 396.41 297.43 396.37C298.55 396.31 299.46 396.56 300.16 397.11C300.85 397.65 301.22 398.41 301.28 399.39L299.29 399.49C299.26 399.03 299.1 398.68 298.78 398.44C298.47 398.19 298.04 398.08 297.50 398.11C296.98 398.14 296.58 398.28 296.31 398.54C296.03 398.80 295.90 399.16 295.93 399.60C295.95 400.01 296.07 400.35 296.30 400.63C296.54 400.89 296.87 401.07 297.29 401.17L298.70 401.48C299.64 401.66 300.37 402.05 300.89 402.63C301.41 403.20 301.70 403.93 301.74 404.81C301.78 405.47 301.65 406.06 301.36 406.59C301.06 407.11 300.64 407.52 300.08 407.83C299.52 408.14 298.85 408.31 298.07 408.35ZM306.32 407.76L302.76 396.25L304.84 396.14L307.00 403.65C307.11 404.02 307.22 404.42 307.33 404.84C307.44 405.26 307.52 405.60 307.58 405.87C307.61 405.60 307.65 405.25 307.70 404.82C307.75 404.39 307.81 403.98 307.88 403.59L309.22 395.91L311.23 395.81L308.90 407.62L306.32 407.76ZM314.41 402.98L314.31 401.12L319.42 400.86L319.52 402.71L314.41 402.98ZM326.78 406.85C326.02 406.89 325.36 406.78 324.79 406.52C324.22 406.26 323.77 405.88 323.43 405.37C323.11 404.87 322.93 404.26 322.89 403.56L322.63 398.54C322.59 397.84 322.71 397.22 322.98 396.68C323.26 396.14 323.67 395.71 324.21 395.40C324.75 395.08 325.39 394.90 326.15 394.86C326.92 394.82 327.58 394.93 328.14 395.19C328.71 395.45 329.16 395.83 329.48 396.34C329.82 396.84 330.00 397.45 330.04 398.15L330.30 403.17C330.34 403.87 330.22 404.49 329.94 405.03C329.67 405.57 329.26 406 328.72 406.31C328.18 406.63 327.54 406.81 326.78 406.85ZM326.69 405.12C327.24 405.09 327.68 404.91 327.99 404.57C328.30 404.24 328.45 403.80 328.42 403.27L328.15 398.25C328.13 397.72 327.94 397.30 327.59 397.00C327.25 396.70 326.8 396.56 326.24 396.59C325.69 396.62 325.25 396.80 324.94 397.14C324.63 397.47 324.48 397.91 324.51 398.44L324.77 403.46C324.80 403.99 324.99 404.41 325.34 404.71C325.68 405.01 326.13 405.15 326.69 405.12ZM326.52 401.89C326.21 401.91 325.95 401.82 325.74 401.63C325.53 401.44 325.42 401.18 325.41 400.86C325.39 400.54 325.47 400.28 325.66 400.08C325.84 399.88 326.09 399.77 326.41 399.75C326.73 399.74 326.99 399.82 327.19 400.00C327.39 400.18 327.50 400.43 327.52 400.75C327.53 401.07 327.45 401.34 327.27 401.55C327.09 401.76 326.84 401.88 326.52 401.89ZM336.36 406.34C335.60 406.38 334.94 406.27 334.37 406.02C333.80 405.76 333.35 405.38 333.01 404.87C332.69 404.36 332.51 403.76 332.47 403.06L332.21 398.04C332.17 397.34 332.29 396.72 332.56 396.18C332.84 395.64 333.25 395.21 333.79 394.9C334.33 394.58 334.98 394.40 335.73 394.36C336.50 394.32 337.16 394.43 337.72 394.69C338.29 394.95 338.74 395.33 339.06 395.84C339.40 396.34 339.58 396.95 339.62 397.65L339.88 402.67C339.92 403.37 339.80 403.99 339.52 404.53C339.25 405.07 338.84 405.49 338.30 405.81C337.76 406.13 337.12 406.30 336.36 406.34ZM336.27 404.62C336.82 404.59 337.26 404.41 337.57 404.07C337.88 403.73 338.03 403.30 338.00 402.77L337.74 397.75C337.71 397.22 337.52 396.80 337.17 396.50C336.83 396.19 336.38 396.06 335.82 396.09C335.27 396.12 334.83 396.30 334.52 396.64C334.21 396.97 334.06 397.41 334.09 397.94L334.36 402.96C334.38 403.49 334.57 403.91 334.92 404.21C335.26 404.51 335.72 404.65 336.27 404.62ZM336.10 401.39C335.79 401.41 335.53 401.32 335.32 401.13C335.11 400.94 335.01 400.68 334.99 400.36C334.97 400.04 335.05 399.78 335.24 399.58C335.42 399.38 335.67 399.27 335.99 399.25C336.31 399.23 336.57 399.32 336.77 399.50C336.97 399.68 337.08 399.93 337.10 400.25C337.11 400.57 337.03 400.84 336.85 401.05C336.67 401.26 336.42 401.37 336.10 401.39ZM345.92 405.84C344.85 405.90 343.97 405.68 343.29 405.18C342.62 404.67 342.22 403.95 342.11 403.03L344.10 402.93C344.17 403.33 344.35 403.63 344.63 403.84C344.93 404.04 345.33 404.13 345.83 404.10C346.39 404.07 346.80 403.91 347.07 403.60C347.34 403.29 347.47 402.87 347.44 402.35L347.38 401.22C347.35 400.68 347.19 400.29 346.88 400.03C346.58 399.75 346.15 399.63 345.60 399.66C345.26 399.68 344.97 399.76 344.73 399.91C344.49 400.06 344.32 400.27 344.20 400.52L342.25 400.62L342.00 394.19L348.56 393.85L348.66 395.65L343.98 395.90L344.12 399.29L344.59 399.26L344.13 399.69C344.10 399.20 344.27 398.81 344.64 398.51C345.02 398.20 345.54 398.03 346.20 397.99C347.15 397.93 347.90 398.18 348.45 398.74C349.01 399.29 349.32 400.08 349.38 401.11L349.44 402.25C349.49 403.30 349.21 404.15 348.58 404.79C347.96 405.43 347.07 405.78 345.92 405.84ZM355.52 405.34C354.75 405.38 354.08 405.29 353.50 405.06C352.92 404.82 352.47 404.47 352.13 404.01C351.80 403.55 351.62 403.00 351.58 402.36C351.55 401.66 351.71 401.04 352.08 400.52C352.45 400.00 353.01 399.54 353.77 399.15L355.52 398.24C355.89 398.04 356.18 397.78 356.37 397.46C356.58 397.14 356.67 396.79 356.65 396.40C356.63 395.97 356.47 395.63 356.17 395.39C355.87 395.14 355.47 395.02 354.98 395.05C354.49 395.08 354.10 395.23 353.82 395.51C353.55 395.79 353.42 396.15 353.44 396.59C353.46 396.96 353.59 397.30 353.83 397.59C354.07 397.89 354.38 398.12 354.77 398.27L356.58 398.99C357.44 399.32 358.07 399.73 358.47 400.22C358.87 400.70 359.09 401.28 359.12 401.96C359.18 402.94 358.88 403.74 358.22 404.35C357.58 404.95 356.68 405.28 355.52 405.34ZM355.43 403.63C355.99 403.60 356.41 403.44 356.72 403.13C357.03 402.82 357.18 402.42 357.15 401.94C357.13 401.57 357.00 401.22 356.76 400.90C356.52 400.57 356.20 400.33 355.79 400.17L353.85 399.39C353.10 399.08 352.53 398.71 352.12 398.26C351.72 397.80 351.51 397.24 351.47 396.58C351.44 395.98 351.56 395.45 351.82 394.98C352.08 394.50 352.48 394.12 353 393.84C353.53 393.56 354.16 393.4 354.89 393.36C355.63 393.32 356.26 393.41 356.80 393.64C357.34 393.87 357.77 394.20 358.08 394.65C358.41 395.09 358.58 395.61 358.61 396.21C358.65 396.88 358.49 397.46 358.15 397.94C357.80 398.43 357.27 398.87 356.56 399.25L354.69 400.24C354.32 400.43 354.03 400.70 353.82 401.04C353.61 401.38 353.52 401.74 353.54 402.11C353.57 402.59 353.75 402.97 354.08 403.25C354.43 403.53 354.88 403.66 355.43 403.63ZM361.56 404.86L361.46 402.93L364.91 399.08C365.4 398.53 365.75 398.04 365.97 397.61C366.2 397.18 366.29 396.73 366.27 396.29C366.24 395.74 366.07 395.33 365.76 395.05C365.44 394.75 365.03 394.62 364.52 394.65C363.95 394.68 363.52 394.86 363.22 395.21C362.92 395.55 362.78 396.00 362.81 396.58L360.81 396.68C360.78 395.94 360.91 395.29 361.19 394.74C361.48 394.18 361.91 393.74 362.47 393.41C363.03 393.08 363.69 392.9 364.46 392.86C365.19 392.82 365.84 392.92 366.40 393.17C366.95 393.42 367.4 393.79 367.72 394.27C368.04 394.76 368.22 395.34 368.26 396.04C368.30 396.75 368.15 397.46 367.81 398.16C367.48 398.85 366.94 399.60 366.17 400.42L363.86 402.93L368.75 402.68L368.85 404.48L361.56 404.86ZM371.22 404.36L371.13 402.60L374.17 402.44L373.74 394.31L370.81 396.74L370.70 394.63L373.28 392.55L375.64 392.43L376.16 402.34L378.61 402.21L378.70 403.97L371.22 404.36ZM384.15 403.84C383.39 403.88 382.73 403.78 382.15 403.53C381.58 403.28 381.13 402.91 380.79 402.43C380.46 401.95 380.27 401.36 380.24 400.68L382.25 400.57C382.28 401.10 382.45 401.50 382.76 401.78C383.09 402.05 383.52 402.17 384.08 402.15C384.63 402.12 385.05 401.94 385.33 401.63C385.62 401.32 385.74 400.90 385.72 400.39L385.67 399.48C385.64 398.96 385.47 398.56 385.16 398.29C384.84 398.01 384.41 397.88 383.86 397.91L382.55 397.98L382.45 396.17L384.90 393.66L380.41 393.89L380.32 392.18L386.84 391.84L386.93 393.65L383.80 396.84L383.77 396.20C384.92 396.14 385.84 396.40 386.55 396.97C387.25 397.54 387.63 398.34 387.68 399.38L387.73 400.29C387.77 400.97 387.64 401.57 387.36 402.09C387.08 402.60 386.66 403.01 386.11 403.32C385.56 403.63 384.91 403.80 384.15 403.84Z" fill="#6B7896"/>
<path id="Vector@@251_7986" d="M166.21 497.21C292.89 430.49 478.40 530.92 624.53 453.17" stroke="#021D59" stroke-width="6" stroke-linecap="round" stroke-linejoin="round" stroke-dasharray="2 14"/>
<circle id="Ellipse@@251_7987" cx="166.21" cy="497.21" r="11.5" transform="rotate(-3 166.21 497.21)" fill="#021D59" stroke="white" stroke-width="5"/>
<path id="San Salvador@@251_7988" d="M166.97 527.85C166.88 527.29 166.61 526.85 166.17 526.56C165.72 526.26 165.13 526.14 164.39 526.18C163.89 526.20 163.47 526.3 163.13 526.46C162.79 526.61 162.54 526.82 162.37 527.07C162.20 527.33 162.12 527.61 162.14 527.92C162.15 528.18 162.21 528.41 162.34 528.59C162.47 528.78 162.65 528.94 162.87 529.07C163.09 529.20 163.34 529.31 163.63 529.39C163.91 529.48 164.21 529.55 164.53 529.60L165.86 529.85C166.50 529.96 167.09 530.11 167.63 530.32C168.17 530.53 168.65 530.80 169.05 531.12C169.46 531.45 169.78 531.84 170.02 532.3C170.26 532.75 170.40 533.28 170.43 533.89C170.48 534.78 170.29 535.56 169.87 536.24C169.46 536.91 168.85 537.44 168.02 537.85C167.21 538.25 166.21 538.48 165.02 538.54C163.85 538.60 162.82 538.47 161.93 538.16C161.05 537.85 160.34 537.35 159.82 536.67C159.30 535.99 159.00 535.12 158.92 534.08L161.89 533.92C161.95 534.41 162.11 534.81 162.38 535.12C162.64 535.43 162.99 535.66 163.41 535.80C163.84 535.94 164.32 535.99 164.85 535.97C165.37 535.94 165.82 535.84 166.2 535.67C166.58 535.50 166.86 535.27 167.06 534.99C167.26 534.71 167.35 534.39 167.33 534.04C167.32 533.72 167.21 533.45 167.00 533.24C166.80 533.02 166.51 532.85 166.13 532.71C165.76 532.58 165.31 532.46 164.77 532.36L163.17 532.04C161.93 531.81 160.94 531.39 160.19 530.80C159.45 530.20 159.05 529.37 159.00 528.29C158.95 527.41 159.15 526.63 159.58 525.95C160.03 525.27 160.66 524.72 161.47 524.31C162.28 523.90 163.22 523.66 164.28 523.61C165.35 523.55 166.31 523.69 167.13 524.01C167.96 524.34 168.61 524.82 169.1 525.45C169.58 526.09 169.85 526.84 169.91 527.70L166.97 527.85ZM175.78 537.98C175.08 538.01 174.46 537.92 173.90 537.71C173.34 537.49 172.89 537.15 172.55 536.69C172.22 536.23 172.03 535.64 171.99 534.92C171.96 534.31 172.04 533.80 172.24 533.37C172.44 532.95 172.73 532.60 173.10 532.33C173.47 532.06 173.89 531.85 174.37 531.70C174.86 531.54 175.37 531.43 175.91 531.35C176.54 531.25 177.04 531.16 177.43 531.08C177.81 531.00 178.09 530.90 178.26 530.77C178.43 530.64 178.51 530.46 178.49 530.23L178.49 530.19C178.47 529.74 178.31 529.40 178.01 529.17C177.72 528.94 177.32 528.83 176.80 528.86C176.26 528.89 175.83 529.03 175.52 529.29C175.21 529.54 175.02 529.85 174.93 530.22L172.12 530.14C172.23 529.47 172.48 528.88 172.87 528.38C173.26 527.87 173.78 527.47 174.42 527.17C175.07 526.87 175.83 526.70 176.70 526.65C177.30 526.62 177.89 526.66 178.45 526.78C179.01 526.89 179.52 527.08 179.96 527.36C180.42 527.63 180.78 528.00 181.05 528.45C181.33 528.90 181.48 529.45 181.52 530.10L181.90 537.45L179.04 537.60L178.96 536.09L178.87 536.09C178.71 536.44 178.50 536.75 178.22 537.03C177.94 537.30 177.6 537.52 177.19 537.69C176.79 537.85 176.32 537.95 175.78 537.98ZM176.53 535.84C176.98 535.82 177.37 535.71 177.70 535.52C178.03 535.32 178.28 535.07 178.46 534.76C178.64 534.44 178.72 534.09 178.70 533.71L178.64 532.56C178.55 532.62 178.42 532.69 178.26 532.75C178.10 532.80 177.92 532.86 177.72 532.91C177.52 532.96 177.31 533.00 177.11 533.05C176.91 533.09 176.73 533.12 176.56 533.15C176.21 533.23 175.91 533.32 175.65 533.45C175.39 533.58 175.19 533.74 175.05 533.95C174.92 534.14 174.86 534.38 174.87 534.67C174.89 535.08 175.06 535.38 175.37 535.59C175.68 535.78 176.07 535.87 176.53 535.84ZM186.94 530.87L187.27 537.17L184.25 537.33L183.67 526.43L186.55 526.28L186.66 528.20L186.78 528.2C186.99 527.55 187.37 527.03 187.92 526.63C188.46 526.22 189.14 526.00 189.95 525.96C190.71 525.92 191.38 526.05 191.96 526.35C192.54 526.65 193.00 527.10 193.34 527.70C193.69 528.3 193.88 529.02 193.93 529.86L194.29 536.80L191.27 536.96L190.93 530.56C190.90 529.89 190.70 529.38 190.34 529.03C189.97 528.67 189.49 528.50 188.88 528.53C188.48 528.55 188.12 528.66 187.82 528.85C187.52 529.04 187.29 529.31 187.14 529.66C186.98 530.00 186.92 530.40 186.94 530.87ZM208.69 525.67C208.60 525.10 208.33 524.67 207.89 524.37C207.44 524.08 206.85 523.95 206.11 523.99C205.61 524.02 205.19 524.11 204.85 524.27C204.51 524.42 204.26 524.63 204.09 524.88C203.92 525.14 203.85 525.42 203.86 525.74C203.87 526.00 203.93 526.22 204.06 526.41C204.19 526.6 204.37 526.75 204.59 526.89C204.81 527.01 205.06 527.12 205.35 527.21C205.63 527.29 205.93 527.36 206.25 527.42L207.58 527.66C208.22 527.77 208.81 527.93 209.35 528.14C209.89 528.35 210.37 528.61 210.77 528.94C211.18 529.26 211.50 529.65 211.74 530.11C211.98 530.57 212.12 531.10 212.15 531.70C212.2 532.59 212.01 533.37 211.59 534.05C211.18 534.72 210.57 535.26 209.74 535.66C208.93 536.06 207.93 536.29 206.74 536.35C205.57 536.41 204.54 536.29 203.65 535.97C202.77 535.66 202.06 535.16 201.54 534.48C201.02 533.80 200.72 532.94 200.64 531.89L203.61 531.74C203.67 532.22 203.83 532.62 204.10 532.94C204.36 533.24 204.71 533.47 205.13 533.61C205.56 533.75 206.04 533.81 206.57 533.78C207.09 533.75 207.54 533.65 207.92 533.48C208.3 533.31 208.58 533.08 208.78 532.80C208.98 532.52 209.07 532.21 209.05 531.86C209.04 531.53 208.93 531.26 208.72 531.05C208.52 530.84 208.23 530.66 207.85 530.53C207.48 530.39 207.03 530.27 206.49 530.17L204.89 529.86C203.65 529.62 202.66 529.21 201.91 528.61C201.17 528.02 200.77 527.18 200.72 526.11C200.67 525.23 200.87 524.45 201.30 523.76C201.75 523.08 202.38 522.53 203.19 522.12C204.00 521.71 204.94 521.48 206.00 521.42C207.07 521.36 208.03 521.50 208.85 521.83C209.68 522.15 210.33 522.63 210.82 523.27C211.30 523.90 211.57 524.65 211.63 525.51L208.69 525.67ZM217.50 535.79C216.80 535.83 216.18 535.74 215.62 535.52C215.06 535.31 214.61 534.97 214.27 534.51C213.94 534.04 213.75 533.45 213.71 532.73C213.68 532.12 213.76 531.61 213.96 531.19C214.16 530.76 214.45 530.42 214.82 530.15C215.19 529.88 215.61 529.66 216.09 529.51C216.58 529.36 217.09 529.24 217.63 529.16C218.26 529.06 218.76 528.97 219.15 528.9C219.53 528.81 219.81 528.71 219.98 528.58C220.15 528.45 220.23 528.28 220.21 528.04L220.21 528.00C220.19 527.55 220.03 527.21 219.73 526.98C219.44 526.75 219.04 526.65 218.52 526.67C217.98 526.70 217.55 526.85 217.24 527.10C216.93 527.36 216.74 527.67 216.65 528.03L213.84 527.95C213.95 527.28 214.20 526.69 214.59 526.19C214.98 525.68 215.50 525.28 216.14 524.99C216.79 524.69 217.55 524.51 218.42 524.47C219.02 524.44 219.61 524.48 220.17 524.59C220.73 524.70 221.24 524.90 221.68 525.17C222.14 525.45 222.50 525.81 222.77 526.27C223.05 526.72 223.20 527.27 223.24 527.91L223.62 535.26L220.76 535.41L220.68 533.90L220.59 533.91C220.43 534.26 220.22 534.57 219.94 534.84C219.66 535.11 219.32 535.33 218.91 535.50C218.51 535.66 218.04 535.76 217.50 535.79ZM218.25 533.66C218.70 533.63 219.09 533.53 219.42 533.33C219.75 533.14 220.00 532.88 220.18 532.57C220.36 532.26 220.44 531.91 220.42 531.52L220.36 530.37C220.27 530.44 220.14 530.50 219.98 530.56C219.82 530.62 219.64 530.67 219.44 530.72C219.24 530.77 219.03 530.82 218.83 530.86C218.63 530.90 218.45 530.94 218.28 530.97C217.93 531.04 217.63 531.14 217.37 531.27C217.11 531.39 216.91 531.56 216.77 531.76C216.64 531.96 216.58 532.2 216.59 532.48C216.61 532.89 216.78 533.20 217.09 533.40C217.40 533.60 217.79 533.68 218.25 533.66ZM228.23 520.45L228.99 534.98L225.97 535.14L225.20 520.61L228.23 520.45ZM240.99 523.43L237.76 534.52L234.35 534.70L229.97 524.00L233.16 523.84L235.83 531.51L235.95 531.51L237.79 523.59L240.99 523.43ZM245.94 534.30C245.24 534.33 244.61 534.25 244.06 534.03C243.50 533.82 243.05 533.48 242.71 533.02C242.37 532.55 242.19 531.96 242.15 531.24C242.12 530.63 242.20 530.12 242.40 529.70C242.60 529.27 242.89 528.93 243.26 528.66C243.63 528.39 244.05 528.17 244.53 528.02C245.02 527.87 245.53 527.75 246.06 527.67C246.69 527.57 247.20 527.48 247.59 527.41C247.97 527.32 248.25 527.22 248.42 527.09C248.59 526.96 248.66 526.78 248.65 526.55L248.65 526.51C248.63 526.06 248.47 525.72 248.17 525.49C247.88 525.26 247.47 525.16 246.96 525.18C246.41 525.21 245.99 525.36 245.68 525.61C245.37 525.87 245.17 526.18 245.09 526.54L242.28 526.46C242.39 525.79 242.64 525.20 243.03 524.70C243.42 524.19 243.94 523.79 244.58 523.5C245.23 523.2 245.99 523.02 246.86 522.98C247.46 522.95 248.04 522.99 248.61 523.10C249.17 523.21 249.68 523.41 250.12 523.68C250.57 523.96 250.94 524.32 251.21 524.78C251.49 525.23 251.64 525.78 251.67 526.42L252.06 533.77L249.19 533.92L249.11 532.41L249.03 532.42C248.87 532.76 248.65 533.08 248.37 533.35C248.09 533.62 247.75 533.84 247.35 534.01C246.95 534.17 246.47 534.27 245.94 534.30ZM246.69 532.17C247.14 532.14 247.52 532.04 247.85 531.84C248.19 531.65 248.44 531.39 248.62 531.08C248.80 530.77 248.88 530.42 248.86 530.03L248.79 528.88C248.70 528.94 248.58 529.01 248.41 529.07C248.26 529.12 248.08 529.18 247.87 529.23C247.67 529.28 247.47 529.33 247.27 529.37C247.07 529.41 246.88 529.45 246.72 529.48C246.37 529.55 246.06 529.65 245.80 529.77C245.55 529.90 245.35 530.07 245.21 530.27C245.08 530.47 245.01 530.71 245.03 530.99C245.05 531.40 245.22 531.71 245.53 531.91C245.84 532.11 246.23 532.19 246.69 532.17ZM258.43 533.62C257.60 533.66 256.84 533.49 256.15 533.09C255.46 532.70 254.89 532.1 254.46 531.28C254.03 530.47 253.78 529.45 253.71 528.24C253.65 526.99 253.8 525.94 254.15 525.09C254.51 524.24 255.01 523.59 255.66 523.14C256.31 522.69 257.03 522.44 257.83 522.40C258.44 522.37 258.96 522.45 259.37 522.63C259.8 522.82 260.14 523.05 260.41 523.35C260.68 523.64 260.89 523.93 261.04 524.21L261.13 524.21L260.84 518.75L263.86 518.59L264.62 533.11L261.64 533.27L261.55 531.52L261.42 531.53C261.29 531.84 261.11 532.15 260.86 532.46C260.62 532.77 260.30 533.03 259.90 533.25C259.50 533.46 259.01 533.58 258.43 533.62ZM259.26 531.16C259.75 531.14 260.15 530.98 260.47 530.70C260.80 530.41 261.04 530.02 261.19 529.53C261.35 529.04 261.41 528.47 261.38 527.82C261.35 527.17 261.23 526.61 261.02 526.15C260.82 525.68 260.54 525.32 260.18 525.08C259.83 524.84 259.41 524.73 258.92 524.76C258.43 524.78 258.01 524.94 257.69 525.23C257.36 525.51 257.12 525.90 256.97 526.39C256.82 526.87 256.77 527.43 256.80 528.06C256.83 528.69 256.95 529.25 257.15 529.73C257.35 530.20 257.63 530.57 257.98 530.82C258.34 531.07 258.76 531.19 259.26 531.16ZM272.03 532.94C270.93 533 269.97 532.81 269.14 532.39C268.32 531.95 267.66 531.33 267.18 530.51C266.71 529.69 266.44 528.72 266.38 527.60C266.32 526.48 266.48 525.48 266.88 524.62C267.27 523.75 267.85 523.06 268.62 522.55C269.40 522.03 270.34 521.75 271.44 521.69C272.55 521.63 273.51 521.82 274.33 522.25C275.16 522.67 275.82 523.30 276.29 524.12C276.77 524.94 277.04 525.91 277.10 527.04C277.16 528.16 276.99 529.15 276.60 530.02C276.21 530.88 275.63 531.57 274.85 532.09C274.07 532.60 273.14 532.88 272.03 532.94ZM271.93 530.60C272.43 530.57 272.84 530.41 273.16 530.11C273.48 529.80 273.71 529.39 273.86 528.89C274.00 528.38 274.06 527.81 274.03 527.18C274.00 526.55 273.88 525.98 273.68 525.50C273.48 525.01 273.21 524.63 272.86 524.36C272.51 524.09 272.08 523.97 271.58 523.99C271.07 524.02 270.66 524.19 270.33 524.49C270.00 524.80 269.76 525.21 269.61 525.71C269.47 526.22 269.41 526.79 269.45 527.42C269.48 528.05 269.6 528.61 269.79 529.10C269.99 529.59 270.27 529.97 270.63 530.24C270.99 530.50 271.42 530.62 271.93 530.60ZM279.35 532.34L278.78 521.45L281.71 521.29L281.81 523.19L281.92 523.19C282.08 522.50 282.39 521.97 282.84 521.60C283.29 521.23 283.82 521.03 284.43 520.99C284.58 520.99 284.75 520.99 284.92 521.00C285.10 521.01 285.25 521.02 285.39 521.05L285.53 523.73C285.38 523.70 285.18 523.67 284.93 523.65C284.68 523.63 284.45 523.62 284.24 523.64C283.80 523.66 283.41 523.78 283.07 523.99C282.73 524.2 282.47 524.48 282.28 524.83C282.10 525.18 282.02 525.57 282.05 526.02L282.37 532.18L279.35 532.34Z" fill="#021D59"/>
<circle id="Ellipse@@251_7989" cx="624.53" cy="453.17" r="11.5" transform="rotate(-3 624.53 453.17)" fill="#FF5A1F" stroke="white" stroke-width="5"/>
<path id="San Miguel@@251_7990" d="M560.38 487.21C560.29 486.64 560.03 486.21 559.58 485.91C559.13 485.62 558.54 485.49 557.80 485.53C557.30 485.56 556.88 485.65 556.54 485.81C556.21 485.97 555.95 486.17 555.78 486.43C555.61 486.68 555.54 486.97 555.55 487.28C555.56 487.54 555.62 487.76 555.75 487.95C555.89 488.14 556.06 488.30 556.28 488.43C556.50 488.55 556.75 488.66 557.04 488.75C557.32 488.83 557.63 488.90 557.95 488.96L559.27 489.20C559.91 489.31 560.50 489.47 561.04 489.68C561.58 489.89 562.06 490.15 562.46 490.48C562.87 490.80 563.19 491.19 563.43 491.65C563.67 492.11 563.81 492.64 563.85 493.24C563.89 494.13 563.70 494.92 563.29 495.59C562.88 496.26 562.26 496.80 561.44 497.20C560.62 497.60 559.62 497.83 558.44 497.89C557.26 497.96 556.23 497.83 555.34 497.52C554.46 497.20 553.76 496.70 553.23 496.03C552.71 495.34 552.41 494.48 552.33 493.43L555.31 493.28C555.36 493.76 555.53 494.16 555.79 494.48C556.06 494.78 556.40 495.01 556.83 495.15C557.26 495.29 557.74 495.35 558.27 495.32C558.79 495.29 559.23 495.19 559.61 495.02C559.99 494.85 560.28 494.63 560.48 494.34C560.67 494.06 560.76 493.75 560.75 493.40C560.73 493.07 560.62 492.80 560.41 492.59C560.21 492.38 559.92 492.20 559.55 492.07C559.17 491.93 558.72 491.81 558.18 491.71L556.58 491.40C555.34 491.16 554.35 490.75 553.61 490.15C552.86 489.56 552.47 488.72 552.42 487.65C552.36 486.77 552.56 485.99 553.00 485.31C553.44 484.62 554.07 484.08 554.88 483.66C555.69 483.25 556.63 483.02 557.69 482.96C558.77 482.91 559.72 483.04 560.54 483.37C561.37 483.69 562.02 484.17 562.51 484.81C562.99 485.44 563.26 486.19 563.32 487.05L560.38 487.21ZM569.19 497.33C568.49 497.37 567.87 497.28 567.31 497.07C566.76 496.85 566.31 496.51 565.96 496.05C565.63 495.58 565.44 494.99 565.40 494.27C565.37 493.67 565.45 493.15 565.66 492.73C565.86 492.31 566.14 491.96 566.51 491.69C566.88 491.42 567.31 491.21 567.79 491.05C568.27 490.90 568.78 490.78 569.32 490.70C569.95 490.60 570.46 490.51 570.84 490.44C571.23 490.36 571.50 490.25 571.67 490.12C571.84 490.00 571.92 489.82 571.91 489.59L571.90 489.54C571.88 489.09 571.72 488.75 571.42 488.52C571.13 488.29 570.73 488.19 570.21 488.22C569.67 488.24 569.24 488.39 568.93 488.65C568.62 488.90 568.43 489.21 568.34 489.57L565.54 489.49C565.64 488.82 565.89 488.24 566.28 487.73C566.67 487.22 567.19 486.82 567.83 486.53C568.48 486.23 569.24 486.05 570.11 486.01C570.72 485.98 571.30 486.02 571.86 486.13C572.43 486.24 572.93 486.44 573.38 486.71C573.83 486.99 574.19 487.35 574.47 487.81C574.74 488.26 574.89 488.81 574.93 489.46L575.31 496.80L572.45 496.95L572.37 495.44L572.28 495.45C572.13 495.80 571.91 496.11 571.63 496.38C571.35 496.66 571.01 496.87 570.60 497.04C570.20 497.21 569.73 497.30 569.19 497.33ZM569.95 495.20C570.39 495.18 570.78 495.07 571.11 494.88C571.44 494.68 571.69 494.42 571.87 494.11C572.05 493.80 572.13 493.45 572.11 493.07L572.05 491.91C571.96 491.98 571.83 492.04 571.67 492.10C571.51 492.16 571.33 492.21 571.13 492.26C570.93 492.31 570.73 492.36 570.52 492.40C570.32 492.44 570.14 492.48 569.98 492.51C569.62 492.58 569.32 492.68 569.06 492.81C568.80 492.93 568.60 493.10 568.47 493.30C568.33 493.50 568.27 493.74 568.28 494.02C568.31 494.43 568.47 494.74 568.78 494.94C569.09 495.14 569.48 495.22 569.95 495.20ZM580.35 490.22L580.68 496.52L577.66 496.68L577.09 485.79L579.97 485.64L580.07 487.56L580.19 487.55C580.40 486.90 580.78 486.38 581.33 485.98C581.88 485.58 582.55 485.36 583.36 485.31C584.12 485.28 584.79 485.41 585.37 485.71C585.95 486.01 586.41 486.46 586.75 487.06C587.10 487.65 587.29 488.37 587.34 489.22L587.70 496.15L584.68 496.31L584.34 489.91C584.31 489.25 584.12 488.74 583.75 488.38C583.39 488.02 582.90 487.86 582.30 487.89C581.89 487.91 581.54 488.02 581.23 488.21C580.93 488.40 580.71 488.67 580.55 489.01C580.4 489.35 580.33 489.76 580.35 490.22ZM594.00 481.26L597.79 481.06L602.30 490.61L602.47 490.60L605.96 480.63L609.75 480.43L610.51 494.96L607.53 495.11L607.03 485.66L606.91 485.67L603.64 495.25L601.62 495.35L597.36 486.13L597.24 486.14L597.74 495.63L594.76 495.78L594.00 481.26ZM612.98 494.83L612.41 483.93L615.43 483.78L616.00 494.67L612.98 494.83ZM613.85 482.45C613.40 482.47 613.01 482.35 612.67 482.06C612.34 481.78 612.16 481.43 612.14 481.00C612.12 480.59 612.26 480.22 612.56 479.91C612.87 479.59 613.24 479.42 613.69 479.39C614.14 479.37 614.53 479.50 614.87 479.79C615.20 480.07 615.38 480.42 615.40 480.83C615.43 481.25 615.28 481.62 614.98 481.94C614.68 482.26 614.30 482.43 613.85 482.45ZM623.56 498.60C622.58 498.65 621.73 498.56 621.02 498.33C620.31 498.10 619.74 497.77 619.30 497.33C618.87 496.89 618.57 496.39 618.42 495.82L621.19 495.30C621.29 495.51 621.43 495.71 621.63 495.89C621.82 496.07 622.07 496.21 622.38 496.31C622.70 496.41 623.07 496.45 623.51 496.42C624.17 496.39 624.70 496.20 625.11 495.86C625.53 495.52 625.71 494.97 625.67 494.23L625.57 492.23L625.44 492.24C625.33 492.55 625.14 492.85 624.89 493.13C624.64 493.41 624.31 493.65 623.90 493.84C623.50 494.04 623.01 494.15 622.43 494.18C621.61 494.22 620.86 494.07 620.16 493.73C619.48 493.38 618.92 492.82 618.48 492.06C618.04 491.29 617.79 490.30 617.73 489.10C617.67 487.86 617.81 486.82 618.17 485.97C618.53 485.12 619.03 484.48 619.68 484.03C620.33 483.58 621.05 483.34 621.85 483.30C622.46 483.27 622.98 483.34 623.40 483.53C623.82 483.71 624.17 483.95 624.43 484.24C624.70 484.53 624.92 484.82 625.07 485.11L625.18 485.10L625.09 483.27L628.09 483.11L628.66 494.11C628.71 495.04 628.52 495.83 628.10 496.48C627.68 497.12 627.08 497.62 626.29 497.98C625.51 498.34 624.60 498.54 623.56 498.60ZM623.27 491.86C623.75 491.83 624.16 491.69 624.48 491.43C624.81 491.17 625.05 490.80 625.21 490.34C625.37 489.87 625.43 489.32 625.40 488.68C625.36 488.04 625.25 487.49 625.04 487.04C624.84 486.57 624.56 486.22 624.20 485.98C623.85 485.73 623.43 485.63 622.94 485.65C622.45 485.68 622.03 485.83 621.71 486.12C621.38 486.40 621.14 486.79 620.99 487.27C620.84 487.75 620.78 488.30 620.82 488.92C620.85 489.55 620.96 490.09 621.16 490.54C621.37 490.98 621.64 491.32 621.99 491.55C622.35 491.78 622.77 491.88 623.27 491.86ZM637.80 488.88L637.48 482.62L640.50 482.46L641.07 493.36L638.17 493.51L638.06 491.53L637.95 491.54C637.74 492.19 637.36 492.72 636.80 493.14C636.26 493.56 635.57 493.79 634.76 493.83C634.03 493.87 633.38 493.74 632.81 493.43C632.24 493.13 631.78 492.68 631.44 492.09C631.10 491.50 630.90 490.77 630.85 489.92L630.49 482.99L633.51 482.83L633.85 489.23C633.89 489.87 634.08 490.37 634.44 490.72C634.80 491.08 635.27 491.24 635.84 491.21C636.21 491.19 636.54 491.09 636.85 490.91C637.16 490.72 637.40 490.46 637.58 490.12C637.76 489.78 637.83 489.36 637.80 488.88ZM648.46 493.18C647.34 493.24 646.36 493.07 645.53 492.65C644.70 492.24 644.05 491.62 643.57 490.81C643.09 489.99 642.82 489.00 642.76 487.86C642.70 486.74 642.87 485.74 643.26 484.87C643.65 484.00 644.23 483.31 644.99 482.80C645.76 482.28 646.68 482.00 647.75 481.94C648.47 481.90 649.15 481.98 649.78 482.18C650.41 482.38 650.97 482.69 651.46 483.13C651.95 483.56 652.35 484.12 652.64 484.80C652.94 485.48 653.11 486.28 653.16 487.20L653.21 488.03L644.01 488.52L643.91 486.64L650.26 486.31C650.24 485.88 650.13 485.5 649.92 485.17C649.71 484.84 649.44 484.59 649.09 484.42C648.75 484.25 648.36 484.17 647.92 484.19C647.46 484.22 647.06 484.34 646.72 484.58C646.38 484.80 646.12 485.10 645.94 485.46C645.76 485.82 645.68 486.22 645.69 486.65L645.79 488.43C645.82 488.97 645.94 489.43 646.16 489.81C646.38 490.19 646.68 490.48 647.06 490.67C647.44 490.87 647.89 490.95 648.39 490.92C648.73 490.91 649.03 490.84 649.31 490.73C649.58 490.63 649.81 490.47 650.00 490.27C650.19 490.07 650.33 489.83 650.42 489.55L653.22 489.59C653.12 490.27 652.86 490.87 652.44 491.4C652.03 491.91 651.49 492.33 650.82 492.65C650.14 492.96 649.36 493.14 648.46 493.18ZM657.68 477.92L658.44 492.45L655.42 492.60L654.66 478.08L657.68 477.92Z" fill="#021D59"/>
<g id="Frame@@251_7991">
<rect x="383.28" y="473.82" width="46" height="30" rx="8" transform="rotate(-3 383.28 473.82)" fill="#FF5A1F"/>
<g id="Xpress / &#195;&#129;guila@@251_7992">
<path id="&#195;&#129;guila@@I251_7992_12_21" fill-rule="evenodd" clip-rule="evenodd" d="M406.00 494.51C405.17 494.45 404.22 494.11 403.64 493.59L403.41 493.38L403.68 493.37C404.83 493.31 405.92 492.92 406.71 492.33C407.14 492.03 407.50 491.62 407.28 491.69C403.72 493.03 401.56 492.87 399.16 491.18C398.93 490.97 398.70 490.82 398.70 490.76C398.64 490.66 403.42 489.47 406.53 488.81C408.00 488.51 407.89 488.52 407.54 488.21C406.96 487.58 406.19 487.73 398.92 489.71C397.61 490.05 397.34 490.01 395.69 489.05C393.81 487.94 393.76 487.94 394.03 487.87C394.08 487.81 394.52 487.73 394.90 487.60C396.09 487.27 398.65 486.69 401.92 485.97C403.66 485.66 405.08 485.31 405.08 485.31C405.24 485.19 404.49 484.68 404.05 484.65C403.66 484.61 398.43 485.66 394.79 486.56C392.72 487.06 392.67 487.06 391.19 486.20C389.26 485.09 389.03 484.94 389.08 484.93C389.3 484.76 399.63 482.23 404.15 481.23C406.92 480.64 407.31 480.56 408.36 480.78C410.98 481.25 412.86 483.63 413.02 486.60C413.05 487.26 413.05 487.26 413.32 487.02C414.16 486.21 414.09 484.89 413.25 483.67C413.08 483.46 412.96 483.30 413.01 483.29C413.49 482.94 416.43 482.40 418.19 482.31C419.67 482.17 420.12 482.32 420.77 483.11C421.12 483.48 421.34 483.57 422.06 483.54C423.33 483.58 424.58 484.45 424.63 485.38C424.63 485.38 424.47 485.39 424.19 485.41C421.32 485.23 418.14 486.55 415.14 489.3C414.62 489.76 413.78 490.52 413.30 490.93C411.04 492.98 409.01 494.13 407.21 494.45C406.61 494.53 406.55 494.54 406.00 494.51ZM420.55 484.22C420.54 484.00 419.91 483.48 419.63 483.44C419.13 483.41 418.81 483.65 418.83 484.04C418.79 484.26 418.79 484.26 419.45 484.17C419.77 484.10 419.83 484.09 420.11 484.19C420.56 484.39 420.56 484.39 420.55 484.22Z" fill="white"/>
</g>
</g>
</g>
<g id="&#195;&#129;rbol@@251_7993">
<rect id="Rectangle@@251_7994" x="124" y="828" width="21.6" height="312" fill="#5B3A1E"/>
<ellipse id="Ellipse@@251_7995" cx="136" cy="832" rx="96" ry="72" fill="#1A6B3F"/>
<ellipse id="Ellipse@@251_7996" cx="160" cy="772" rx="72" ry="60" fill="#23854F"/>
</g>
<g id="&#195;&#129;rbol@@251_7997">
<rect id="Rectangle@@251_7998" x="1791" y="802" width="23.4" height="338" fill="#5B3A1E"/>
<ellipse id="Ellipse@@251_7999" cx="1804" cy="808" rx="104" ry="78" fill="#1A6B3F"/>
<ellipse id="Ellipse@@251_8000" cx="1830" cy="743" rx="78" ry="65" fill="#23854F"/>
</g>
<g id="Chip &#194;&#183; En ruta a San Miguel@@251_8001" filter="url(#filter2_d_264_10280)">
<rect x="120" y="260" width="308" height="53" rx="26.5" fill="#021D59"/>
<circle id="Ellipse@@251_8002" cx="148" cy="286.5" r="8" fill="#FFD02E"/>
<path id="En ruta a San Miguel@@251_8003" d="M169.51 295V277.54H181.27V280.58H173.20V284.74H180.67V287.79H173.20V291.95H181.31V295H169.51ZM187.77 287.43V295H184.14V281.90H187.60V284.21H187.75C188.04 283.45 188.53 282.85 189.21 282.41C189.89 281.96 190.72 281.73 191.69 281.73C192.60 281.73 193.39 281.93 194.07 282.33C194.74 282.73 195.27 283.30 195.65 284.04C196.02 284.77 196.21 285.64 196.21 286.66V295H192.58V287.31C192.58 286.51 192.38 285.88 191.96 285.43C191.55 284.98 190.98 284.75 190.25 284.75C189.76 284.75 189.33 284.86 188.96 285.07C188.59 285.28 188.3 285.58 188.09 285.99C187.88 286.38 187.78 286.86 187.77 287.43ZM204.62 295V281.90H208.14V284.19H208.28C208.52 283.38 208.92 282.76 209.48 282.35C210.04 281.93 210.69 281.72 211.43 281.72C211.61 281.72 211.80 281.73 212.01 281.75C212.22 281.77 212.41 281.81 212.57 281.84V285.07C212.40 285.02 212.16 284.97 211.86 284.93C211.56 284.89 211.28 284.87 211.03 284.87C210.50 284.87 210.02 284.99 209.60 285.22C209.19 285.45 208.86 285.77 208.61 286.17C208.37 286.58 208.25 287.06 208.25 287.59V295H204.62ZM222.84 289.42V281.90H226.47V295H222.98V292.62H222.85C222.55 293.38 222.06 294.00 221.37 294.47C220.69 294.93 219.86 295.17 218.88 295.17C218.00 295.17 217.23 294.97 216.57 294.57C215.90 294.17 215.38 293.61 215.01 292.87C214.64 292.14 214.45 291.26 214.44 290.24V281.90H218.08V289.59C218.08 290.36 218.29 290.98 218.70 291.42C219.11 291.87 219.65 292.10 220.34 292.10C220.78 292.10 221.19 292.00 221.57 291.80C221.95 291.59 222.26 291.29 222.49 290.90C222.73 290.50 222.84 290.01 222.84 289.42ZM236.34 281.90V284.63H228.45V281.90H236.34ZM230.24 278.77H233.87V290.97C233.87 291.31 233.93 291.57 234.03 291.76C234.13 291.94 234.27 292.07 234.45 292.14C234.64 292.21 234.86 292.25 235.10 292.25C235.27 292.25 235.44 292.24 235.61 292.21C235.78 292.17 235.91 292.15 236.00 292.13L236.58 294.83C236.39 294.89 236.14 294.96 235.81 295.03C235.48 295.11 235.08 295.16 234.61 295.17C233.73 295.21 232.96 295.09 232.31 294.83C231.65 294.56 231.14 294.14 230.78 293.58C230.42 293.02 230.24 292.31 230.24 291.45V278.77ZM242.44 295.24C241.60 295.24 240.86 295.10 240.20 294.81C239.55 294.51 239.03 294.08 238.65 293.50C238.28 292.92 238.09 292.20 238.09 291.34C238.09 290.61 238.22 290.00 238.49 289.51C238.76 289.01 239.12 288.61 239.58 288.31C240.04 288.01 240.56 287.79 241.15 287.63C241.74 287.48 242.36 287.37 243.01 287.31C243.77 287.23 244.38 287.15 244.85 287.09C245.31 287.01 245.65 286.90 245.86 286.76C246.07 286.62 246.18 286.41 246.18 286.13V286.08C246.18 285.54 246.01 285.12 245.67 284.83C245.33 284.53 244.85 284.38 244.23 284.38C243.58 284.38 243.06 284.53 242.67 284.82C242.29 285.10 242.03 285.46 241.91 285.89L238.55 285.62C238.72 284.83 239.05 284.14 239.55 283.56C240.05 282.97 240.70 282.52 241.49 282.21C242.28 281.89 243.21 281.73 244.25 281.73C244.98 281.73 245.67 281.82 246.34 281.99C247.01 282.16 247.60 282.42 248.12 282.78C248.64 283.14 249.05 283.60 249.36 284.16C249.66 284.72 249.81 285.39 249.81 286.17V295H246.36V293.18H246.26C246.05 293.59 245.77 293.95 245.42 294.26C245.07 294.57 244.64 294.81 244.15 294.99C243.65 295.16 243.08 295.24 242.44 295.24ZM243.47 292.74C244.01 292.74 244.48 292.63 244.89 292.42C245.30 292.21 245.62 291.92 245.85 291.55C246.09 291.19 246.20 290.78 246.20 290.32V288.93C246.09 289.00 245.93 289.07 245.73 289.13C245.54 289.19 245.32 289.24 245.08 289.29C244.83 289.34 244.59 289.38 244.34 289.42C244.10 289.46 243.88 289.49 243.68 289.52C243.25 289.58 242.88 289.68 242.56 289.81C242.24 289.95 242.00 290.13 241.82 290.37C241.65 290.59 241.56 290.88 241.56 291.22C241.56 291.71 241.74 292.09 242.09 292.35C242.46 292.61 242.92 292.74 243.47 292.74ZM261.91 295.24C261.08 295.24 260.33 295.10 259.68 294.81C259.03 294.51 258.51 294.08 258.13 293.50C257.75 292.92 257.57 292.20 257.57 291.34C257.57 290.61 257.70 290.00 257.97 289.51C258.23 289.01 258.60 288.61 259.06 288.31C259.52 288.01 260.04 287.79 260.62 287.63C261.22 287.48 261.83 287.37 262.48 287.31C263.24 287.23 263.86 287.15 264.32 287.09C264.79 287.01 265.13 286.90 265.34 286.76C265.55 286.62 265.65 286.41 265.65 286.13V286.08C265.65 285.54 265.48 285.12 265.14 284.83C264.81 284.53 264.33 284.38 263.71 284.38C263.06 284.38 262.54 284.53 262.15 284.82C261.76 285.10 261.51 285.46 261.38 285.89L258.03 285.62C258.2 284.83 258.53 284.14 259.03 283.56C259.53 282.97 260.18 282.52 260.97 282.21C261.76 281.89 262.68 281.73 263.73 281.73C264.45 281.73 265.15 281.82 265.82 281.99C266.49 282.16 267.08 282.42 267.60 282.78C268.12 283.14 268.53 283.60 268.83 284.16C269.13 284.72 269.28 285.39 269.28 286.17V295H265.84V293.18H265.74C265.53 293.59 265.25 293.95 264.89 294.26C264.54 294.57 264.12 294.81 263.62 294.99C263.13 295.16 262.56 295.24 261.91 295.24ZM262.95 292.74C263.49 292.74 263.96 292.63 264.37 292.42C264.78 292.21 265.10 291.92 265.33 291.55C265.56 291.19 265.68 290.78 265.68 290.32V288.93C265.57 289.00 265.41 289.07 265.21 289.13C265.02 289.19 264.80 289.24 264.55 289.29C264.31 289.34 264.07 289.38 263.82 289.42C263.58 289.46 263.35 289.49 263.16 289.52C262.73 289.58 262.36 289.68 262.04 289.81C261.72 289.95 261.47 290.13 261.30 290.37C261.12 290.59 261.03 290.88 261.03 291.22C261.03 291.71 261.21 292.09 261.57 292.35C261.93 292.61 262.39 292.74 262.95 292.74ZM287.19 282.56C287.12 281.87 286.83 281.34 286.31 280.96C285.80 280.58 285.1 280.39 284.21 280.39C283.61 280.39 283.10 280.47 282.68 280.64C282.27 280.81 281.95 281.04 281.73 281.33C281.51 281.63 281.41 281.96 281.41 282.34C281.39 282.65 281.46 282.92 281.60 283.16C281.75 283.39 281.95 283.59 282.21 283.76C282.46 283.93 282.76 284.07 283.09 284.20C283.43 284.32 283.79 284.42 284.17 284.50L285.73 284.88C286.50 285.05 287.2 285.28 287.83 285.56C288.47 285.84 289.02 286.19 289.48 286.61C289.95 287.02 290.31 287.51 290.57 288.08C290.83 288.64 290.96 289.28 290.97 290.01C290.96 291.08 290.69 292.00 290.15 292.79C289.62 293.57 288.84 294.17 287.83 294.60C286.83 295.03 285.61 295.24 284.19 295.24C282.78 295.24 281.56 295.03 280.51 294.59C279.47 294.16 278.66 293.52 278.07 292.68C277.49 291.83 277.19 290.77 277.16 289.52H280.73C280.77 290.10 280.94 290.59 281.23 290.98C281.54 291.37 281.94 291.66 282.44 291.86C282.94 292.05 283.51 292.15 284.15 292.15C284.77 292.15 285.32 292.06 285.78 291.88C286.24 291.69 286.60 291.44 286.86 291.12C287.12 290.79 287.24 290.42 287.24 290.00C287.24 289.61 287.13 289.28 286.89 289.01C286.67 288.75 286.33 288.52 285.89 288.33C285.45 288.14 284.91 287.97 284.28 287.82L282.38 287.34C280.91 286.98 279.74 286.42 278.89 285.66C278.04 284.90 277.62 283.88 277.62 282.59C277.62 281.53 277.90 280.61 278.46 279.82C279.04 279.03 279.83 278.41 280.83 277.97C281.83 277.52 282.96 277.30 284.23 277.30C285.53 277.30 286.66 277.52 287.63 277.97C288.60 278.41 289.35 279.03 289.89 279.82C290.43 280.61 290.71 281.52 290.73 282.56H287.19ZM297.11 295.24C296.28 295.24 295.54 295.10 294.88 294.81C294.23 294.51 293.71 294.08 293.33 293.50C292.96 292.92 292.77 292.20 292.77 291.34C292.77 290.61 292.90 290.00 293.17 289.51C293.44 289.01 293.80 288.61 294.26 288.31C294.72 288.01 295.24 287.79 295.83 287.63C296.42 287.48 297.04 287.37 297.69 287.31C298.45 287.23 299.06 287.15 299.53 287.09C299.99 287.01 300.33 286.90 300.54 286.76C300.75 286.62 300.86 286.41 300.86 286.13V286.08C300.86 285.54 300.69 285.12 300.34 284.83C300.01 284.53 299.53 284.38 298.91 284.38C298.26 284.38 297.74 284.53 297.35 284.82C296.97 285.10 296.71 285.46 296.59 285.89L293.23 285.62C293.40 284.83 293.73 284.14 294.23 283.56C294.73 282.97 295.38 282.52 296.17 282.21C296.96 281.89 297.88 281.73 298.93 281.73C299.66 281.73 300.35 281.82 301.02 281.99C301.69 282.16 302.28 282.42 302.80 282.78C303.32 283.14 303.73 283.60 304.04 284.16C304.34 284.72 304.49 285.39 304.49 286.17V295H301.04V293.18H300.94C300.73 293.59 300.45 293.95 300.10 294.26C299.75 294.57 299.32 294.81 298.83 294.99C298.33 295.16 297.76 295.24 297.11 295.24ZM298.15 292.74C298.69 292.74 299.16 292.63 299.57 292.42C299.98 292.21 300.30 291.92 300.53 291.55C300.77 291.19 300.88 290.78 300.88 290.32V288.93C300.77 289.00 300.61 289.07 300.41 289.13C300.22 289.19 300.00 289.24 299.76 289.29C299.51 289.34 299.27 289.38 299.02 289.42C298.78 289.46 298.56 289.49 298.36 289.52C297.93 289.58 297.56 289.68 297.24 289.81C296.92 289.95 296.68 290.13 296.50 290.37C296.33 290.59 296.24 290.88 296.24 291.22C296.24 291.71 296.42 292.09 296.77 292.35C297.14 292.61 297.60 292.74 298.15 292.74ZM310.93 287.43V295H307.30V281.90H310.76V284.21H310.92C311.21 283.45 311.69 282.85 312.37 282.41C313.06 281.96 313.88 281.73 314.85 281.73C315.76 281.73 316.56 281.93 317.23 282.33C317.91 282.73 318.43 283.30 318.81 284.04C319.18 284.77 319.37 285.64 319.37 286.66V295H315.74V287.31C315.75 286.51 315.54 285.88 315.13 285.43C314.71 284.98 314.14 284.75 313.41 284.75C312.93 284.75 312.49 284.86 312.12 285.07C311.75 285.28 311.46 285.58 311.25 285.99C311.05 286.38 310.94 286.86 310.93 287.43ZM327.86 277.54H332.41L337.21 289.27H337.42L342.23 277.54H346.78V295H343.20V283.63H343.05L338.54 294.91H336.10L331.58 283.59H331.44V295H327.86V277.54ZM349.75 295V281.90H353.38V295H349.75ZM351.57 280.22C351.03 280.22 350.57 280.04 350.18 279.68C349.80 279.32 349.61 278.88 349.61 278.38C349.61 277.88 349.80 277.45 350.18 277.09C350.57 276.73 351.03 276.54 351.57 276.54C352.11 276.54 352.57 276.73 352.95 277.09C353.34 277.45 353.53 277.88 353.53 278.38C353.53 278.88 353.34 279.32 352.95 279.68C352.57 280.04 352.11 280.22 351.57 280.22ZM362.19 300.18C361.01 300.18 360.00 300.02 359.16 299.69C358.33 299.37 357.66 298.94 357.17 298.39C356.67 297.84 356.35 297.22 356.20 296.53L359.56 296.08C359.66 296.34 359.83 296.58 360.05 296.81C360.27 297.04 360.56 297.22 360.92 297.36C361.29 297.50 361.74 297.57 362.27 297.57C363.06 297.57 363.71 297.38 364.22 296.99C364.74 296.61 365.00 295.97 365.00 295.07V292.68H364.84C364.69 293.04 364.45 293.38 364.13 293.71C363.81 294.03 363.40 294.30 362.90 294.50C362.40 294.71 361.81 294.81 361.11 294.81C360.13 294.81 359.23 294.58 358.43 294.13C357.63 293.67 356.99 292.96 356.51 292.02C356.04 291.07 355.80 289.87 355.80 288.42C355.80 286.94 356.04 285.70 356.53 284.71C357.01 283.71 357.65 282.97 358.45 282.48C359.26 281.98 360.14 281.73 361.10 281.73C361.84 281.73 362.45 281.86 362.94 282.11C363.44 282.35 363.84 282.66 364.14 283.03C364.44 283.39 364.68 283.75 364.84 284.10H364.98V281.90H368.59V295.12C368.59 296.24 368.31 297.17 367.77 297.92C367.22 298.67 366.47 299.23 365.50 299.61C364.54 299.99 363.44 300.18 362.19 300.18ZM362.26 292.08C362.85 292.08 363.34 291.94 363.75 291.65C364.15 291.35 364.47 290.93 364.68 290.38C364.90 289.83 365.02 289.17 365.02 288.41C365.02 287.64 364.91 286.98 364.69 286.41C364.48 285.84 364.16 285.40 363.75 285.09C363.34 284.78 362.85 284.62 362.26 284.62C361.67 284.62 361.16 284.79 360.75 285.11C360.34 285.43 360.04 285.87 359.83 286.44C359.61 287.01 359.51 287.66 359.51 288.41C359.51 289.16 359.61 289.82 359.83 290.37C360.04 290.91 360.35 291.34 360.75 291.64C361.16 291.93 361.67 292.08 362.26 292.08ZM379.87 289.42V281.90H383.50V295H380.02V292.62H379.88C379.58 293.38 379.09 294.00 378.40 294.47C377.72 294.93 376.89 295.17 375.91 295.17C375.03 295.17 374.26 294.97 373.60 294.57C372.93 294.17 372.41 293.61 372.04 292.87C371.67 292.14 371.48 291.26 371.48 290.24V281.90H375.11V289.59C375.11 290.36 375.32 290.98 375.73 291.42C376.14 291.87 376.69 292.10 377.37 292.10C377.81 292.10 378.22 292.00 378.60 291.80C378.98 291.59 379.29 291.29 379.52 290.90C379.76 290.50 379.88 290.01 379.87 289.42ZM392.37 295.25C391.02 295.25 389.87 294.98 388.89 294.43C387.93 293.88 387.18 293.10 386.66 292.10C386.14 291.09 385.88 289.89 385.88 288.51C385.88 287.16 386.14 285.98 386.66 284.96C387.18 283.95 387.92 283.15 388.87 282.59C389.82 282.02 390.94 281.73 392.23 281.73C393.09 281.73 393.89 281.87 394.64 282.15C395.39 282.42 396.04 282.84 396.60 283.39C397.16 283.94 397.60 284.63 397.91 285.47C398.22 286.30 398.38 287.27 398.38 288.38V289.38H387.33V287.13H394.96C394.96 286.61 394.85 286.14 394.62 285.74C394.39 285.34 394.08 285.02 393.68 284.79C393.28 284.56 392.81 284.44 392.29 284.44C391.73 284.44 391.25 284.57 390.82 284.83C390.40 285.08 390.07 285.42 389.83 285.84C389.59 286.26 389.47 286.73 389.46 287.25V289.39C389.46 290.04 389.58 290.59 389.82 291.07C390.07 291.54 390.41 291.90 390.85 292.16C391.30 292.41 391.82 292.54 392.43 292.54C392.83 292.54 393.20 292.48 393.54 292.37C393.87 292.26 394.16 292.09 394.40 291.86C394.64 291.63 394.82 291.35 394.95 291.02L398.30 291.25C398.13 292.05 397.78 292.76 397.25 293.36C396.73 293.96 396.06 294.42 395.23 294.76C394.40 295.09 393.45 295.25 392.37 295.25ZM404.38 277.54V295H400.75V277.54H404.38Z" fill="white"/>
</g>
</g>
<g id="Titular@@251_8004" filter="url(#filter3_d_264_10280)">
<path d="M159.28 79.56L157.92 89.32H146V135H133.2V89.32H120.56V79.56H159.28ZM193.29 135H182.57L182.01 129.88C179.24 134.2 175.48 136.36 170.73 136.36C167.26 136.36 164.57 135.21 162.65 132.92C160.78 130.62 159.85 127.53 159.85 123.64V92.52H172.17V122.68C172.17 125.72 173.24 127.24 175.37 127.24C177.45 127.24 179.32 125.69 180.97 122.6V92.52H193.29V135ZM235.74 91.16C238.40 91.16 240.80 91.58 242.94 92.44C245.07 93.29 247.07 94.6 248.94 96.36L243.82 103.4C242.59 102.44 241.42 101.74 240.30 101.32C239.18 100.84 237.98 100.6 236.70 100.6C234.24 100.6 232.40 101.61 231.18 103.64C229.95 105.66 229.34 109.13 229.34 114.04C229.34 118.73 229.95 122.01 231.18 123.88C232.46 125.74 234.27 126.68 236.62 126.68C237.84 126.68 238.96 126.49 239.98 126.12C240.99 125.69 242.19 125 243.58 124.04L248.94 131.32C245.26 134.68 240.91 136.36 235.90 136.36C229.82 136.36 225.04 134.41 221.58 130.52C218.16 126.62 216.46 121.16 216.46 114.12C216.46 109.48 217.23 105.42 218.78 101.96C220.38 98.49 222.62 95.82 225.50 93.96C228.43 92.09 231.84 91.16 235.74 91.16ZM263.94 136.36C260.42 136.36 257.67 135.34 255.70 133.32C253.73 131.29 252.74 128.46 252.74 124.84V75.64L265.06 74.36V124.28C265.06 125.82 265.70 126.6 266.98 126.6C267.51 126.6 268.10 126.49 268.74 126.28L271.06 134.84C268.93 135.85 266.55 136.36 263.94 136.36ZM287.33 92.52V135H275.01V92.52H287.33ZM281.09 70.36C283.17 70.36 284.88 71.02 286.21 72.36C287.60 73.69 288.29 75.34 288.29 77.32C288.29 79.34 287.60 81.02 286.21 82.36C284.88 83.69 283.17 84.36 281.09 84.36C279.01 84.36 277.31 83.69 275.97 82.36C274.64 81.02 273.97 79.34 273.97 77.32C273.97 75.34 274.64 73.69 275.97 72.36C277.31 71.02 279.01 70.36 281.09 70.36ZM330.20 112.92C330.20 114.62 330.12 116.12 329.96 117.4H306.28C306.60 121.13 307.42 123.72 308.76 125.16C310.09 126.6 311.98 127.32 314.44 127.32C316.04 127.32 317.56 127.02 319.00 126.44C320.44 125.85 322.01 124.94 323.72 123.72L328.76 130.52C324.38 134.41 319.29 136.36 313.48 136.36C307.08 136.36 302.20 134.38 298.84 130.44C295.53 126.44 293.88 120.94 293.88 113.96C293.88 107.13 295.48 101.64 298.68 97.48C301.88 93.26 306.38 91.16 312.20 91.16C317.80 91.16 322.20 93.05 325.40 96.84C328.60 100.57 330.20 105.93 330.20 112.92ZM318.12 109.4C318.12 106.04 317.66 103.53 316.76 101.88C315.90 100.17 314.44 99.32 312.36 99.32C310.49 99.32 309.05 100.12 308.04 101.72C307.02 103.26 306.41 106.01 306.20 109.96H318.12V109.4ZM359.46 91.16C362.77 91.16 365.36 92.28 367.22 94.52C369.14 96.70 370.10 99.72 370.10 103.56V135H357.78V105.24C357.78 103.48 357.52 102.25 356.98 101.56C356.50 100.81 355.76 100.44 354.74 100.44C353.68 100.44 352.64 100.89 351.62 101.8C350.66 102.65 349.65 103.93 348.58 105.64V135H336.26V92.52H347.06L347.94 97.56C349.49 95.42 351.20 93.82 353.06 92.76C354.93 91.69 357.06 91.16 359.46 91.16ZM403.02 133C401.58 134.06 399.90 134.89 397.98 135.48C396.11 136.06 394.22 136.36 392.30 136.36C387.98 136.36 384.72 135.13 382.54 132.68C380.35 130.22 379.26 126.78 379.26 122.36V101.08H374.14V92.52H379.26V83.32L391.58 81.88V92.52H400.30L399.02 101.08H391.58V122.2C391.58 125.13 392.70 126.6 394.94 126.6C396.16 126.6 397.50 126.2 398.94 125.4L403.02 133ZM439.42 112.92C439.42 114.62 439.34 116.12 439.18 117.4H415.50C415.82 121.13 416.64 123.72 417.98 125.16C419.31 126.6 421.20 127.32 423.66 127.32C425.26 127.32 426.78 127.02 428.22 126.44C429.66 125.85 431.23 124.94 432.94 123.72L437.98 130.52C433.60 134.41 428.51 136.36 422.70 136.36C416.30 136.36 411.42 134.38 408.06 130.44C404.75 126.44 403.10 120.94 403.10 113.96C403.10 107.13 404.70 101.64 407.90 97.48C411.10 93.26 415.60 91.16 421.42 91.16C427.02 91.16 431.42 93.05 434.62 96.84C437.82 100.57 439.42 105.93 439.42 112.92ZM427.34 109.4C427.34 106.04 426.88 103.53 425.98 101.88C425.12 100.17 423.66 99.32 421.58 99.32C419.71 99.32 418.27 100.12 417.26 101.72C416.24 103.26 415.63 106.01 415.42 109.96H427.34V109.4ZM475.96 91.16C478.79 91.16 481.43 91.61 483.88 92.52C486.34 93.42 488.50 94.70 490.36 96.36L485.88 103.08C482.68 101 479.67 99.96 476.84 99.96C475.35 99.96 474.20 100.28 473.40 100.92C472.60 101.50 472.20 102.33 472.20 103.4C472.20 104.2 472.39 104.89 472.76 105.48C473.19 106.01 473.96 106.57 475.08 107.16C476.20 107.69 477.88 108.36 480.12 109.16C484.07 110.49 486.98 112.17 488.84 114.2C490.76 116.22 491.72 118.97 491.72 122.44C491.72 126.70 490.10 130.09 486.84 132.6C483.59 135.10 479.43 136.36 474.36 136.36C471.11 136.36 468.07 135.8 465.24 134.68C462.47 133.56 460.10 132.04 458.12 130.12L463.96 123.56C467.27 126.22 470.58 127.56 473.88 127.56C475.54 127.56 476.82 127.21 477.72 126.52C478.68 125.77 479.16 124.76 479.16 123.48C479.16 122.46 478.95 121.64 478.52 121C478.15 120.36 477.40 119.74 476.28 119.16C475.22 118.57 473.54 117.88 471.24 117.08C467.35 115.74 464.50 114.06 462.68 112.04C460.92 109.96 460.04 107.34 460.04 104.2C460.04 101.74 460.68 99.53 461.96 97.56C463.24 95.58 465.08 94.04 467.48 92.92C469.88 91.74 472.71 91.16 475.96 91.16ZM528.09 123.24C528.09 124.68 528.28 125.74 528.65 126.44C529.03 127.13 529.67 127.66 530.57 128.04L528.01 136.12C525.56 135.90 523.56 135.34 522.01 134.44C520.47 133.53 519.27 132.12 518.41 130.2C515.80 134.30 511.99 136.36 506.97 136.36C503.13 136.36 500.07 135.16 497.77 132.76C495.53 130.30 494.41 127.08 494.41 123.08C494.41 118.44 495.96 114.89 499.05 112.44C502.20 109.98 506.73 108.76 512.65 108.76H516.01V106.76C516.01 104.25 515.56 102.52 514.65 101.56C513.75 100.54 512.15 100.04 509.85 100.04C507.24 100.04 503.91 100.76 499.85 102.2L497.05 94.28C499.40 93.26 501.91 92.49 504.57 91.96C507.24 91.42 509.72 91.16 512.01 91.16C517.51 91.16 521.56 92.38 524.17 94.84C526.79 97.29 528.09 101.02 528.09 106.04V123.24ZM510.65 127.56C511.77 127.56 512.79 127.21 513.69 126.52C514.65 125.82 515.43 124.84 516.01 123.56V115.64H513.77C511.27 115.64 509.43 116.17 508.25 117.24C507.08 118.25 506.49 119.85 506.49 122.04C506.49 123.85 506.84 125.24 507.53 126.2C508.28 127.10 509.32 127.56 510.65 127.56ZM559.30 91.16C563.83 91.16 567.30 93.10 569.70 97C572.15 100.84 573.38 106.44 573.38 113.8C573.38 118.28 572.76 122.22 571.54 125.64C570.31 129.05 568.55 131.69 566.26 133.56C563.96 135.42 561.24 136.36 558.10 136.36C556.07 136.36 554.20 135.90 552.50 135C550.79 134.04 549.32 132.70 548.10 131L547.54 135H536.58V75.64L548.90 74.36V96.68C550.07 94.97 551.56 93.64 553.38 92.68C555.19 91.66 557.16 91.16 559.30 91.16ZM554.50 127.4C556.47 127.4 557.99 126.38 559.06 124.36C560.12 122.28 560.66 118.76 560.66 113.8C560.66 108.52 560.18 104.94 559.22 103.08C558.26 101.16 556.87 100.2 555.06 100.2C553.88 100.2 552.76 100.62 551.70 101.48C550.68 102.33 549.75 103.50 548.90 105V123.4C550.39 126.06 552.26 127.4 554.50 127.4ZM614.49 112.92C614.49 114.62 614.41 116.12 614.25 117.4H590.57C590.89 121.13 591.72 123.72 593.05 125.16C594.39 126.6 596.28 127.32 598.73 127.32C600.33 127.32 601.85 127.02 603.29 126.44C604.73 125.85 606.31 124.94 608.01 123.72L613.05 130.52C608.68 134.41 603.59 136.36 597.77 136.36C591.37 136.36 586.49 134.38 583.13 130.44C579.83 126.44 578.17 120.94 578.17 113.96C578.17 107.13 579.77 101.64 582.97 97.48C586.17 93.26 590.68 91.16 596.49 91.16C602.09 91.16 606.49 93.05 609.69 96.84C612.89 100.57 614.49 105.93 614.49 112.92ZM602.41 109.4C602.41 106.04 601.96 103.53 601.05 101.88C600.20 100.17 598.73 99.32 596.65 99.32C594.79 99.32 593.35 100.12 592.33 101.72C591.32 103.26 590.71 106.01 590.49 109.96H602.41V109.4Z" fill="white"/>
<path d="M159.36 152.64V212H148.48L147.92 207.28C145.2 211.33 141.6 213.36 137.12 213.36C132.37 213.36 128.74 211.38 126.24 207.44C123.73 203.44 122.48 197.86 122.48 190.72C122.48 186.24 123.12 182.29 124.4 178.88C125.73 175.46 127.57 172.82 129.92 170.96C132.32 169.09 135.06 168.16 138.16 168.16C141.73 168.16 144.69 169.46 147.04 172.08V151.36L159.36 152.64ZM141.04 204.32C142.26 204.32 143.36 203.97 144.32 203.28C145.28 202.53 146.18 201.41 147.04 199.92V180.64C146.18 179.46 145.33 178.61 144.48 178.08C143.68 177.49 142.72 177.2 141.6 177.2C137.33 177.2 135.2 181.70 135.2 190.72C135.2 195.78 135.70 199.33 136.72 201.36C137.73 203.33 139.17 204.32 141.04 204.32ZM184.95 168.16C190.92 168.16 195.59 170.10 198.95 174C202.36 177.84 204.07 183.44 204.07 190.8C204.07 197.84 202.36 203.36 198.95 207.36C195.54 211.36 190.87 213.36 184.95 213.36C178.98 213.36 174.31 211.41 170.95 207.52C167.59 203.62 165.91 198.02 165.91 190.72C165.91 183.62 167.59 178.10 170.95 174.16C174.36 170.16 179.03 168.16 184.95 168.16ZM184.95 177.28C182.76 177.28 181.16 178.32 180.15 180.4C179.14 182.48 178.63 185.92 178.63 190.72C178.63 195.62 179.14 199.12 180.15 201.2C181.16 203.28 182.76 204.32 184.95 204.32C187.14 204.32 188.74 203.28 189.75 201.2C190.82 199.06 191.35 195.6 191.35 190.8C191.35 185.89 190.84 182.42 189.83 180.4C188.82 178.32 187.19 177.28 184.95 177.28ZM189.99 145.6L194.79 154.64L177.43 162.16L174.07 156.08L189.99 145.6ZM233.68 168.16C236.99 168.16 239.58 169.28 241.44 171.52C243.36 173.70 244.32 176.72 244.32 180.56V212H232.00V182.24C232.00 180.48 231.74 179.25 231.20 178.56C230.72 177.81 229.98 177.44 228.96 177.44C227.90 177.44 226.86 177.89 225.84 178.8C224.88 179.65 223.87 180.93 222.80 182.64V212H210.48V169.52H221.28L222.16 174.56C223.71 172.42 225.42 170.82 227.28 169.76C229.15 168.69 231.28 168.16 233.68 168.16ZM287.64 152.64V212H276.76L276.20 207.28C273.48 211.33 269.88 213.36 265.40 213.36C260.65 213.36 257.02 211.38 254.52 207.44C252.01 203.44 250.76 197.86 250.76 190.72C250.76 186.24 251.40 182.29 252.68 178.88C254.01 175.46 255.85 172.82 258.20 170.96C260.60 169.09 263.34 168.16 266.44 168.16C270.01 168.16 272.97 169.46 275.32 172.08V151.36L287.64 152.64ZM269.32 204.32C270.54 204.32 271.64 203.97 272.60 203.28C273.56 202.53 274.46 201.41 275.32 199.92V180.64C274.46 179.46 273.61 178.61 272.76 178.08C271.96 177.49 271.00 177.2 269.88 177.2C265.61 177.2 263.48 181.70 263.48 190.72C263.48 195.78 263.98 199.33 265.00 201.36C266.01 203.33 267.45 204.32 269.32 204.32ZM330.51 189.92C330.51 191.62 330.43 193.12 330.27 194.4H306.59C306.91 198.13 307.74 200.72 309.07 202.16C310.40 203.6 312.30 204.32 314.75 204.32C316.35 204.32 317.87 204.02 319.31 203.44C320.75 202.85 322.32 201.94 324.03 200.72L329.07 207.52C324.70 211.41 319.60 213.36 313.79 213.36C307.39 213.36 302.51 211.38 299.15 207.44C295.84 203.44 294.19 197.94 294.19 190.96C294.19 184.13 295.79 178.64 298.99 174.48C302.19 170.26 306.70 168.16 312.51 168.16C318.11 168.16 322.51 170.05 325.71 173.84C328.91 177.57 330.51 182.93 330.51 189.92ZM318.43 186.4C318.43 183.04 317.98 180.53 317.07 178.88C316.22 177.17 314.75 176.32 312.67 176.32C310.80 176.32 309.36 177.12 308.35 178.72C307.34 180.26 306.72 183.01 306.51 186.96H318.43V186.4ZM387.14 169.52L375.30 212H360.74L348.66 169.52H361.54L368.10 202.64L374.90 169.52H387.14ZM420.59 200.24C420.59 201.68 420.78 202.74 421.15 203.44C421.53 204.13 422.17 204.66 423.07 205.04L420.51 213.12C418.06 212.90 416.06 212.34 414.51 211.44C412.97 210.53 411.77 209.12 410.91 207.2C408.30 211.30 404.49 213.36 399.47 213.36C395.63 213.36 392.57 212.16 390.27 209.76C388.03 207.30 386.91 204.08 386.91 200.08C386.91 195.44 388.46 191.89 391.55 189.44C394.70 186.98 399.23 185.76 405.15 185.76H408.51V183.76C408.51 181.25 408.06 179.52 407.15 178.56C406.25 177.54 404.65 177.04 402.35 177.04C399.74 177.04 396.41 177.76 392.35 179.2L389.55 171.28C391.90 170.26 394.41 169.49 397.07 168.96C399.74 168.42 402.22 168.16 404.51 168.16C410.01 168.16 414.06 169.38 416.67 171.84C419.29 174.29 420.59 178.02 420.59 183.04V200.24ZM403.15 204.56C404.27 204.56 405.29 204.21 406.19 203.52C407.15 202.82 407.93 201.84 408.51 200.56V192.64H406.27C403.77 192.64 401.93 193.17 400.75 194.24C399.58 195.25 398.99 196.85 398.99 199.04C398.99 200.85 399.34 202.24 400.03 203.2C400.78 204.10 401.82 204.56 403.15 204.56ZM459.56 168.16C462.38 168.16 465.02 168.61 467.48 169.52C469.93 170.42 472.09 171.70 473.96 173.36L469.48 180.08C466.28 178 463.26 176.96 460.44 176.96C458.94 176.96 457.80 177.28 457.00 177.92C456.20 178.50 455.80 179.33 455.80 180.4C455.80 181.2 455.98 181.89 456.36 182.48C456.78 183.01 457.56 183.57 458.68 184.16C459.80 184.69 461.48 185.36 463.72 186.16C467.66 187.49 470.57 189.17 472.44 191.2C474.36 193.22 475.32 195.97 475.32 199.44C475.32 203.70 473.69 207.09 470.44 209.6C467.18 212.10 463.02 213.36 457.96 213.36C454.70 213.36 451.66 212.8 448.84 211.68C446.06 210.56 443.69 209.04 441.72 207.12L447.56 200.56C450.86 203.22 454.17 204.56 457.48 204.56C459.13 204.56 460.41 204.21 461.32 203.52C462.28 202.77 462.76 201.76 462.76 200.48C462.76 199.46 462.54 198.64 462.12 198C461.74 197.36 461.00 196.74 459.88 196.16C458.81 195.57 457.13 194.88 454.84 194.08C450.94 192.74 448.09 191.06 446.28 189.04C444.52 186.96 443.64 184.34 443.64 181.2C443.64 178.74 444.28 176.53 445.56 174.56C446.84 172.58 448.68 171.04 451.08 169.92C453.48 168.74 456.30 168.16 459.56 168.16ZM513.92 212H503.20L502.64 206.88C499.86 211.2 496.10 213.36 491.36 213.36C487.89 213.36 485.20 212.21 483.28 209.92C481.41 207.62 480.48 204.53 480.48 200.64V169.52H492.80V199.68C492.80 202.72 493.86 204.24 496.00 204.24C498.08 204.24 499.94 202.69 501.60 199.6V169.52H513.92V212ZM561.56 168.16C566.25 168.16 569.77 170.10 572.12 174C574.52 177.89 575.72 183.44 575.72 190.64C575.72 195.12 575.08 199.09 573.80 202.56C572.57 205.97 570.81 208.64 568.52 210.56C566.23 212.42 563.53 213.36 560.44 213.36C556.76 213.36 553.69 211.89 551.24 208.96V228.4L538.92 229.68V169.52H549.88L550.44 174.16C553.32 170.16 557.03 168.16 561.56 168.16ZM556.76 204.24C560.92 204.24 563.00 199.76 563.00 190.8C563.00 185.62 562.52 182.08 561.56 180.16C560.65 178.18 559.29 177.2 557.48 177.2C555.08 177.2 553.00 178.77 551.24 181.92V200.72C552.79 203.06 554.63 204.24 556.76 204.24ZM616.84 189.92C616.84 191.62 616.76 193.12 616.60 194.4H592.92C593.24 198.13 594.07 200.72 595.40 202.16C596.73 203.6 598.63 204.32 601.08 204.32C602.68 204.32 604.20 204.02 605.64 203.44C607.08 202.85 608.65 201.94 610.36 200.72L615.40 207.52C611.03 211.41 605.93 213.36 600.12 213.36C593.72 213.36 588.84 211.38 585.48 207.44C582.17 203.44 580.52 197.94 580.52 190.96C580.52 184.13 582.12 178.64 585.32 174.48C588.52 170.26 593.03 168.16 598.84 168.16C604.44 168.16 608.84 170.05 612.04 173.84C615.24 177.57 616.84 182.93 616.84 189.92ZM604.76 186.4C604.76 183.04 604.31 180.53 603.40 178.88C602.55 177.17 601.08 176.32 599.00 176.32C597.13 176.32 595.69 177.12 594.68 178.72C593.67 180.26 593.05 183.01 592.84 186.96H604.76V186.4ZM658.11 152.64V212H647.23L646.67 207.28C643.95 211.33 640.35 213.36 635.87 213.36C631.12 213.36 627.49 211.38 624.99 207.44C622.48 203.44 621.23 197.86 621.23 190.72C621.23 186.24 621.87 182.29 623.15 178.88C624.48 175.46 626.32 172.82 628.67 170.96C631.07 169.09 633.81 168.16 636.91 168.16C640.48 168.16 643.44 169.46 645.79 172.08V151.36L658.11 152.64ZM639.79 204.32C641.01 204.32 642.11 203.97 643.07 203.28C644.03 202.53 644.93 201.41 645.79 199.92V180.64C644.93 179.46 644.08 178.61 643.23 178.08C642.43 177.49 641.47 177.2 640.35 177.2C636.08 177.2 633.95 181.70 633.95 190.72C633.95 195.78 634.45 199.33 635.47 201.36C636.48 203.33 637.92 204.32 639.79 204.32ZM678.82 169.52V212H666.50V169.52H678.82ZM672.58 147.36C674.66 147.36 676.37 148.02 677.70 149.36C679.09 150.69 679.78 152.34 679.78 154.32C679.78 156.34 679.09 158.02 677.70 159.36C676.37 160.69 674.66 161.36 672.58 161.36C670.50 161.36 668.79 160.69 667.46 159.36C666.13 158.02 665.46 156.34 665.46 154.32C665.46 152.34 666.13 150.69 667.46 149.36C668.79 148.02 670.50 147.36 672.58 147.36ZM722.40 152.64V212H711.52L710.96 207.28C708.24 211.33 704.64 213.36 700.16 213.36C695.42 213.36 691.79 211.38 689.28 207.44C686.78 203.44 685.52 197.86 685.52 190.72C685.52 186.24 686.16 182.29 687.44 178.88C688.78 175.46 690.62 172.82 692.96 170.96C695.36 169.09 698.11 168.16 701.20 168.16C704.78 168.16 707.74 169.46 710.08 172.08V151.36L722.40 152.64ZM704.08 204.32C705.31 204.32 706.40 203.97 707.36 203.28C708.32 202.53 709.23 201.41 710.08 199.92V180.64C709.23 179.46 708.38 178.61 707.52 178.08C706.72 177.49 705.76 177.2 704.64 177.2C700.38 177.2 698.24 181.70 698.24 190.72C698.24 195.78 698.75 199.33 699.76 201.36C700.78 203.33 702.22 204.32 704.08 204.32ZM748.00 168.16C753.97 168.16 758.64 170.10 762.00 174C765.41 177.84 767.12 183.44 767.12 190.8C767.12 197.84 765.41 203.36 762.00 207.36C758.58 211.36 753.92 213.36 748.00 213.36C742.02 213.36 737.36 211.41 734.00 207.52C730.64 203.62 728.96 198.02 728.96 190.72C728.96 183.62 730.64 178.10 734.00 174.16C737.41 170.16 742.08 168.16 748.00 168.16ZM748.00 177.28C745.81 177.28 744.21 178.32 743.20 180.4C742.18 182.48 741.68 185.92 741.68 190.72C741.68 195.62 742.18 199.12 743.20 201.2C744.21 203.28 745.81 204.32 748.00 204.32C750.18 204.32 751.78 203.28 752.80 201.2C753.86 199.06 754.40 195.6 754.40 190.8C754.40 185.89 753.89 182.42 752.88 180.4C751.86 178.32 750.24 177.28 748.00 177.28ZM777.71 199.2C779.74 199.2 781.42 199.89 782.75 201.28C784.08 202.66 784.75 204.32 784.75 206.24C784.75 208.21 784.08 209.89 782.75 211.28C781.42 212.66 779.74 213.36 777.71 213.36C775.68 213.36 774.00 212.66 772.67 211.28C771.39 209.89 770.75 208.21 770.75 206.24C770.75 204.32 771.42 202.66 772.75 201.28C774.08 199.89 775.74 199.2 777.71 199.2Z" fill="#FFD02E"/>
</g>
</g>
<defs>
<filter id="filter0_d_264_10280" x="1406" y="26" width="368" height="368" filterUnits="userSpaceOnUse" color-interpolation-filters="sRGB">
<feFlood flood-opacity="0" result="BackgroundImageFix"/>
<feColorMatrix in="SourceAlpha" type="matrix" values="0 0 0 0 0 0 0 0 0 0 0 0 0 0 0 0 0 0 127 0" result="hardAlpha"/>
<feMorphology radius="4" operator="dilate" in="SourceAlpha" result="effect1_dropShadow_264_10280"/>
<feOffset/>
<feGaussianBlur stdDeviation="45"/>
<feColorMatrix type="matrix" values="0 0 0 0 1 0 0 0 0 0.81 0 0 0 0 0.18 0 0 0 0.6 0"/>
<feBlend mode="normal" in2="BackgroundImageFix" result="effect1_dropShadow_264_10280"/>
<feBlend mode="normal" in="SourceGraphic" in2="effect1_dropShadow_264_10280" result="shape"/>
</filter>
<filter id="filter1_d_264_10280" x="76" y="334.69" width="637.17" height="287.04" filterUnits="userSpaceOnUse" color-interpolation-filters="sRGB">
<feFlood flood-opacity="0" result="BackgroundImageFix"/>
<feColorMatrix in="SourceAlpha" type="matrix" values="0 0 0 0 0 0 0 0 0 0 0 0 0 0 0 0 0 0 127 0" result="hardAlpha"/>
<feOffset dy="18"/>
<feGaussianBlur stdDeviation="17"/>
<feColorMatrix type="matrix" values="0 0 0 0 0.01 0 0 0 0 0.03 0 0 0 0 0.2 0 0 0 0.45 0"/>
<feBlend mode="normal" in2="BackgroundImageFix" result="effect1_dropShadow_264_10280"/>
<feBlend mode="normal" in="SourceGraphic" in2="effect1_dropShadow_264_10280" result="shape"/>
</filter>
<filter id="filter2_d_264_10280" x="94" y="246" width="360" height="105" filterUnits="userSpaceOnUse" color-interpolation-filters="sRGB">
<feFlood flood-opacity="0" result="BackgroundImageFix"/>
<feColorMatrix in="SourceAlpha" type="matrix" values="0 0 0 0 0 0 0 0 0 0 0 0 0 0 0 0 0 0 127 0" result="hardAlpha"/>
<feOffset dy="12"/>
<feGaussianBlur stdDeviation="13"/>
<feColorMatrix type="matrix" values="0 0 0 0 0.01 0 0 0 0 0.03 0 0 0 0 0.2 0 0 0 0.45 0"/>
<feBlend mode="normal" in2="BackgroundImageFix" result="effect1_dropShadow_264_10280"/>
<feBlend mode="normal" in="SourceGraphic" in2="effect1_dropShadow_264_10280" result="shape"/>
</filter>
<filter id="filter3_d_264_10280" x="102.56" y="58.35" width="700.19" height="195.32" filterUnits="userSpaceOnUse" color-interpolation-filters="sRGB">
<feFlood flood-opacity="0" result="BackgroundImageFix"/>
<feColorMatrix in="SourceAlpha" type="matrix" values="0 0 0 0 0 0 0 0 0 0 0 0 0 0 0 0 0 0 127 0" result="hardAlpha"/>
<feOffset dy="6"/>
<feGaussianBlur stdDeviation="9"/>
<feColorMatrix type="matrix" values="0 0 0 0 0.01 0 0 0 0 0.03 0 0 0 0 0.2 0 0 0 0.55 0"/>
<feBlend mode="normal" in2="BackgroundImageFix" result="effect1_dropShadow_264_10280"/>
<feBlend mode="normal" in="SourceGraphic" in2="effect1_dropShadow_264_10280" result="shape"/>
</filter>
<linearGradient id="paint0_linear_264_10280" x1="960" y1="0" x2="960" y2="1080" gradientUnits="userSpaceOnUse">
<stop stop-color="#1B4FD0"/>
<stop offset="1" stop-color="#8FB7FF"/>
</linearGradient>
<linearGradient id="paint1_linear_264_10280" x1="1330" y1="231.25" x2="1330" y2="620" gradientUnits="userSpaceOnUse">
<stop stop-color="#3A5FB8"/>
<stop offset="1" stop-color="#27469A"/>
</linearGradient>
<linearGradient id="paint2_linear_264_10280" x1="960" y1="585" x2="960" y2="1080" gradientUnits="userSpaceOnUse">
<stop stop-color="#1F7A4D"/>
<stop offset="1" stop-color="#145C38"/>
</linearGradient>
<linearGradient id="paint3_linear_264_10280" x1="881.14" y1="676.43" x2="881.14" y2="888.45" gradientUnits="userSpaceOnUse">
<stop stop-color="#F0442E"/>
<stop offset="1" stop-color="#D42A1A"/>
</linearGradient>
<linearGradient id="paint4_linear_264_10280" x1="1166.55" y1="730.8" x2="1166.55" y2="893.89" gradientUnits="userSpaceOnUse">
<stop stop-color="#F0442E"/>
<stop offset="1" stop-color="#CC2616"/>
</linearGradient>
<clipPath id="clip0_264_10280">
<rect width="1920" height="1080" fill="white"/>
</clipPath>
<clipPath id="clip1_264_10280">
<rect x="690.87" y="676.43" width="380.54" height="212.01" rx="5.43" fill="white"/>
</clipPath>
</defs>
</svg>
